<svg width="230" height="45" viewBox="0 0 230 45" fill="none" xmlns="http://www.w3.org/2000/svg">
<path d="M211 29L218 22.2317L211 15" stroke="#01193D" stroke-width="2"/>
<path d="M221 29L228 22.2317L221 15" stroke="#01193D" stroke-width="2"/>
<path d="M15.75 13.625V31H12.9V23.4H4.725V31H1.875V13.625H4.725V21.075H12.9V13.625H15.75ZM29.977 27.45H22.702L21.452 31H18.477L24.702 13.6H28.002L34.227 31H31.227L29.977 27.45ZM29.177 25.125L26.352 17.05L23.502 25.125H29.177ZM51.2086 31H48.3586L39.7836 18.025V31H36.9336V13.6H39.7836L48.3586 26.55V13.6H51.2086V31ZM60.6762 31.175C59.5095 31.175 58.4595 30.975 57.5262 30.575C56.5928 30.1583 55.8595 29.575 55.3262 28.825C54.7928 28.075 54.5262 27.2 54.5262 26.2H57.5762C57.6428 26.95 57.9345 27.5667 58.4512 28.05C58.9845 28.5333 59.7262 28.775 60.6762 28.775C61.6595 28.775 62.4262 28.5417 62.9762 28.075C63.5262 27.5917 63.8012 26.975 63.8012 26.225C63.8012 25.6417 63.6262 25.1667 63.2762 24.8C62.9428 24.4333 62.5178 24.15 62.0012 23.95C61.5012 23.75 60.8012 23.5333 59.9012 23.3C58.7678 23 57.8428 22.7 57.1262 22.4C56.4262 22.0833 55.8262 21.6 55.3262 20.95C54.8262 20.3 54.5762 19.4333 54.5762 18.35C54.5762 17.35 54.8262 16.475 55.3262 15.725C55.8262 14.975 56.5262 14.4 57.4262 14C58.3262 13.6 59.3678 13.4 60.5512 13.4C62.2345 13.4 63.6095 13.825 64.6762 14.675C65.7595 15.5083 66.3595 16.6583 66.4762 18.125H63.3262C63.2762 17.4917 62.9762 16.95 62.4262 16.5C61.8762 16.05 61.1512 15.825 60.2512 15.825C59.4345 15.825 58.7678 16.0333 58.2512 16.45C57.7345 16.8667 57.4762 17.4667 57.4762 18.25C57.4762 18.7833 57.6345 19.225 57.9512 19.575C58.2845 19.9083 58.7012 20.175 59.2012 20.375C59.7012 20.575 60.3845 20.7917 61.2512 21.025C62.4012 21.3417 63.3345 21.6583 64.0512 21.975C64.7845 22.2917 65.4012 22.7833 65.9012 23.45C66.4178 24.1 66.6762 24.975 66.6762 26.075C66.6762 26.9583 66.4345 27.7917 65.9512 28.575C65.4845 29.3583 64.7928 29.9917 63.8762 30.475C62.9762 30.9417 61.9095 31.175 60.6762 31.175ZM80.5141 27.45H73.2391L71.9891 31H69.0141L75.2391 13.6H78.5391L84.7641 31H81.7641L80.5141 27.45ZM79.7141 25.125L76.8891 17.05L74.0391 25.125H79.7141ZM93.0148 22.275C93.0148 20.575 93.4065 19.05 94.1898 17.7C94.9898 16.35 96.0648 15.3 97.4148 14.55C98.7815 13.7833 100.273 13.4 101.89 13.4C103.74 13.4 105.382 13.8583 106.815 14.775C108.265 15.675 109.315 16.9583 109.965 18.625H106.54C106.09 17.7083 105.465 17.025 104.665 16.575C103.865 16.125 102.94 15.9 101.89 15.9C100.74 15.9 99.7148 16.1583 98.8148 16.675C97.9148 17.1917 97.2065 17.9333 96.6898 18.9C96.1898 19.8667 95.9398 20.9917 95.9398 22.275C95.9398 23.5583 96.1898 24.6833 96.6898 25.65C97.2065 26.6167 97.9148 27.3667 98.8148 27.9C99.7148 28.4167 100.74 28.675 101.89 28.675C102.94 28.675 103.865 28.45 104.665 28C105.465 27.55 106.09 26.8667 106.54 25.95H109.965C109.315 27.6167 108.265 28.9 106.815 29.8C105.382 30.7 103.74 31.15 101.89 31.15C100.257 31.15 98.7648 30.775 97.4148 30.025C96.0648 29.2583 94.9898 28.2 94.1898 26.85C93.4065 25.5 93.0148 23.975 93.0148 22.275ZM116.151 15.925V21.025H122.151V23.35H116.151V28.675H122.901V31H113.301V13.6H122.901V15.925H116.151ZM139.861 34.15L136.811 30.85C136.061 31.0667 135.236 31.175 134.336 31.175C132.719 31.175 131.228 30.8 129.861 30.05C128.511 29.2833 127.436 28.225 126.636 26.875C125.853 25.5083 125.461 23.975 125.461 22.275C125.461 20.575 125.853 19.05 126.636 17.7C127.436 16.35 128.511 15.3 129.861 14.55C131.228 13.7833 132.719 13.4 134.336 13.4C135.969 13.4 137.461 13.7833 138.811 14.55C140.178 15.3 141.253 16.35 142.036 17.7C142.819 19.05 143.211 20.575 143.211 22.275C143.211 23.875 142.861 25.325 142.161 26.625C141.478 27.9083 140.528 28.9417 139.311 29.725L143.486 34.15H139.861ZM128.386 22.275C128.386 23.5583 128.636 24.6917 129.136 25.675C129.653 26.6417 130.361 27.3917 131.261 27.925C132.161 28.4417 133.186 28.7 134.336 28.7C135.486 28.7 136.511 28.4417 137.411 27.925C138.311 27.3917 139.011 26.6417 139.511 25.675C140.028 24.6917 140.286 23.5583 140.286 22.275C140.286 20.9917 140.028 19.8667 139.511 18.9C139.011 17.9333 138.311 17.1917 137.411 16.675C136.511 16.1583 135.486 15.9 134.336 15.9C133.186 15.9 132.161 16.1583 131.261 16.675C130.361 17.1917 129.653 17.9333 129.136 18.9C128.636 19.8667 128.386 20.9917 128.386 22.275ZM148.914 13.625V24.7C148.914 26.0167 149.256 27.0083 149.939 27.675C150.639 28.3417 151.606 28.675 152.839 28.675C154.089 28.675 155.056 28.3417 155.739 27.675C156.439 27.0083 156.789 26.0167 156.789 24.7V13.625H159.639V24.65C159.639 26.0667 159.331 27.2667 158.714 28.25C158.097 29.2333 157.272 29.9667 156.239 30.45C155.206 30.9333 154.064 31.175 152.814 31.175C151.564 31.175 150.422 30.9333 149.389 30.45C148.372 29.9667 147.564 29.2333 146.964 28.25C146.364 27.2667 146.064 26.0667 146.064 24.65V13.625H148.914ZM166.2 13.625V31H163.35V13.625H166.2ZM181.166 13.625V15.95H176.541V31H173.691V15.95H169.041V13.625H181.166ZM196.928 13.625L191.178 24.7V31H188.328V24.7L182.553 13.625H185.728L189.753 22.15L193.778 13.625H196.928Z" fill="#01193D"/>
</svg>
