<svg width="176" height="45" viewBox="0 0 176 45" fill="none" xmlns="http://www.w3.org/2000/svg">
<path d="M157 29L164 22.2317L157 15" stroke="#01193D" stroke-width="2"/>
<path d="M167 29L174 22.2317L167 15" stroke="#01193D" stroke-width="2"/>
<path d="M9.8 31.175C8.18333 31.175 6.69167 30.8 5.325 30.05C3.975 29.2833 2.9 28.225 2.1 26.875C1.31667 25.5083 0.925 23.975 0.925 22.275C0.925 20.575 1.31667 19.05 2.1 17.7C2.9 16.35 3.975 15.3 5.325 14.55C6.69167 13.7833 8.18333 13.4 9.8 13.4C11.4333 13.4 12.925 13.7833 14.275 14.55C15.6417 15.3 16.7167 16.35 17.5 17.7C18.2833 19.05 18.675 20.575 18.675 22.275C18.675 23.975 18.2833 25.5083 17.5 26.875C16.7167 28.225 15.6417 29.2833 14.275 30.05C12.925 30.8 11.4333 31.175 9.8 31.175ZM9.8 28.7C10.95 28.7 11.975 28.4417 12.875 27.925C13.775 27.3917 14.475 26.6417 14.975 25.675C15.4917 24.6917 15.75 23.5583 15.75 22.275C15.75 20.9917 15.4917 19.8667 14.975 18.9C14.475 17.9333 13.775 17.1917 12.875 16.675C11.975 16.1583 10.95 15.9 9.8 15.9C8.65 15.9 7.625 16.1583 6.725 16.675C5.825 17.1917 5.11667 17.9333 4.6 18.9C4.1 19.8667 3.85 20.9917 3.85 22.275C3.85 23.5583 4.1 24.6917 4.6 25.675C5.11667 26.6417 5.825 27.3917 6.725 27.925C7.625 28.4417 8.65 28.7 9.8 28.7ZM34.0545 18.625C33.6045 17.7583 32.9795 17.1083 32.1795 16.675C31.3795 16.225 30.4545 16 29.4045 16C28.2545 16 27.2295 16.2583 26.3295 16.775C25.4295 17.2917 24.7212 18.025 24.2045 18.975C23.7045 19.925 23.4545 21.025 23.4545 22.275C23.4545 23.525 23.7045 24.6333 24.2045 25.6C24.7212 26.55 25.4295 27.2833 26.3295 27.8C27.2295 28.3167 28.2545 28.575 29.4045 28.575C30.9545 28.575 32.2128 28.1417 33.1795 27.275C34.1462 26.4083 34.7378 25.2333 34.9545 23.75H28.4295V21.475H38.0045V23.7C37.8212 25.05 37.3378 26.2917 36.5545 27.425C35.7878 28.5583 34.7795 29.4667 33.5295 30.15C32.2962 30.8167 30.9212 31.15 29.4045 31.15C27.7712 31.15 26.2795 30.775 24.9295 30.025C23.5795 29.2583 22.5045 28.2 21.7045 26.85C20.9212 25.5 20.5295 23.975 20.5295 22.275C20.5295 20.575 20.9212 19.05 21.7045 17.7C22.5045 16.35 23.5795 15.3 24.9295 14.55C26.2962 13.7833 27.7878 13.4 29.4045 13.4C31.2545 13.4 32.8962 13.8583 34.3295 14.775C35.7795 15.675 36.8295 16.9583 37.4795 18.625H34.0545ZM43.6654 13.625V31H40.8154V13.625H43.6654ZM50.2572 28.7H56.1322V31H47.4072V13.625H50.2572V28.7ZM71.3906 13.625L65.6406 24.7V31H62.7906V24.7L57.0156 13.625H60.1906L64.2156 22.15L68.2406 13.625H71.3906ZM82.9965 13.625V31H80.1465V13.625H82.9965ZM101.013 31H98.1633L89.5883 18.025V31H86.7383V13.6H89.5883L98.1633 26.55V13.6H101.013V31ZM110.431 13.625C112.281 13.625 113.898 13.9833 115.281 14.7C116.681 15.4 117.756 16.4167 118.506 17.75C119.273 19.0667 119.656 20.6083 119.656 22.375C119.656 24.1417 119.273 25.675 118.506 26.975C117.756 28.275 116.681 29.275 115.281 29.975C113.898 30.6583 112.281 31 110.431 31H104.756V13.625H110.431ZM110.431 28.675C112.464 28.675 114.023 28.125 115.106 27.025C116.189 25.925 116.731 24.375 116.731 22.375C116.731 20.3583 116.189 18.7833 115.106 17.65C114.023 16.5167 112.464 15.95 110.431 15.95H107.606V28.675H110.431ZM125.33 13.625V31H122.48V13.625H125.33ZM139.547 27.45H132.272L131.022 31H128.047L134.272 13.6H137.572L143.797 31H140.797L139.547 27.45ZM138.747 25.125L135.922 17.05L133.072 25.125H138.747Z" fill="#01193D"/>
</svg>
