<svg width="313" height="45" viewBox="0 0 313 45" fill="none" xmlns="http://www.w3.org/2000/svg">
<path d="M24.5 13.625L19.35 31H16.125L12.475 17.85L8.6 31L5.4 31.025L0.475 13.625H3.5L7.1 27.775L11 13.625H14.2L17.825 27.7L21.45 13.625H24.5ZM40.7256 13.625V31H37.8756V23.4H29.7006V31H26.8506V13.625H29.7006V21.075H37.8756V13.625H40.7256ZM47.3275 13.625V31H44.4775V13.625H47.3275ZM62.2943 13.625V15.95H57.6693V31H54.8193V15.95H50.1693V13.625H62.2943ZM68.0307 15.925V21.025H74.0307V23.35H68.0307V28.675H74.7807V31H65.1807V13.6H74.7807V15.925H68.0307ZM96.0102 13.625V15.95H91.3852V31H88.5352V15.95H83.8852V13.625H96.0102ZM101.721 13.625V24.7C101.721 26.0167 102.063 27.0083 102.746 27.675C103.446 28.3417 104.413 28.675 105.646 28.675C106.896 28.675 107.863 28.3417 108.546 27.675C109.246 27.0083 109.596 26.0167 109.596 24.7V13.625H112.446V24.65C112.446 26.0667 112.138 27.2667 111.521 28.25C110.905 29.2333 110.08 29.9667 109.046 30.45C108.013 30.9333 106.871 31.175 105.621 31.175C104.371 31.175 103.23 30.9333 102.196 30.45C101.18 29.9667 100.371 29.2333 99.7715 28.25C99.1715 27.2667 98.8715 26.0667 98.8715 24.65V13.625H101.721ZM125.182 31L121.182 24.05H119.007V31H116.157V13.625H122.157C123.491 13.625 124.616 13.8583 125.532 14.325C126.466 14.7917 127.157 15.4167 127.607 16.2C128.074 16.9833 128.307 17.8583 128.307 18.825C128.307 19.9583 127.974 20.9917 127.307 21.925C126.657 22.8417 125.649 23.4667 124.282 23.8L128.582 31H125.182ZM119.007 21.775H122.157C123.224 21.775 124.024 21.5083 124.557 20.975C125.107 20.4417 125.382 19.725 125.382 18.825C125.382 17.925 125.116 17.225 124.582 16.725C124.049 16.2083 123.241 15.95 122.157 15.95H119.007V21.775ZM143.178 13.625V15.95H138.553V31H135.703V15.95H131.053V13.625H143.178ZM148.914 28.7H154.789V31H146.064V13.625H148.914V28.7ZM160.023 15.925V21.025H166.023V23.35H160.023V28.675H166.773V31H157.173V13.6H166.773V15.925H160.023ZM182.502 31.175C181.336 31.175 180.286 30.975 179.352 30.575C178.419 30.1583 177.686 29.575 177.152 28.825C176.619 28.075 176.352 27.2 176.352 26.2H179.402C179.469 26.95 179.761 27.5667 180.277 28.05C180.811 28.5333 181.552 28.775 182.502 28.775C183.486 28.775 184.252 28.5417 184.802 28.075C185.352 27.5917 185.627 26.975 185.627 26.225C185.627 25.6417 185.452 25.1667 185.102 24.8C184.769 24.4333 184.344 24.15 183.827 23.95C183.327 23.75 182.627 23.5333 181.727 23.3C180.594 23 179.669 22.7 178.952 22.4C178.252 22.0833 177.652 21.6 177.152 20.95C176.652 20.3 176.402 19.4333 176.402 18.35C176.402 17.35 176.652 16.475 177.152 15.725C177.652 14.975 178.352 14.4 179.252 14C180.152 13.6 181.194 13.4 182.377 13.4C184.061 13.4 185.436 13.825 186.502 14.675C187.586 15.5083 188.186 16.6583 188.302 18.125H185.152C185.102 17.4917 184.802 16.95 184.252 16.5C183.702 16.05 182.977 15.825 182.077 15.825C181.261 15.825 180.594 16.0333 180.077 16.45C179.561 16.8667 179.302 17.4667 179.302 18.25C179.302 18.7833 179.461 19.225 179.777 19.575C180.111 19.9083 180.527 20.175 181.027 20.375C181.527 20.575 182.211 20.7917 183.077 21.025C184.227 21.3417 185.161 21.6583 185.877 21.975C186.611 22.2917 187.227 22.7833 187.727 23.45C188.244 24.1 188.502 24.975 188.502 26.075C188.502 26.9583 188.261 27.7917 187.777 28.575C187.311 29.3583 186.619 29.9917 185.702 30.475C184.802 30.9417 183.736 31.175 182.502 31.175ZM203.09 13.625V15.95H198.465V31H195.615V15.95H190.965V13.625H203.09ZM208.802 13.625V24.7C208.802 26.0167 209.143 27.0083 209.827 27.675C210.527 28.3417 211.493 28.675 212.727 28.675C213.977 28.675 214.943 28.3417 215.627 27.675C216.327 27.0083 216.677 26.0167 216.677 24.7V13.625H219.527V24.65C219.527 26.0667 219.218 27.2667 218.602 28.25C217.985 29.2333 217.16 29.9667 216.127 30.45C215.093 30.9333 213.952 31.175 212.702 31.175C211.452 31.175 210.31 30.9333 209.277 30.45C208.26 29.9667 207.452 29.2333 206.852 28.25C206.252 27.2667 205.952 26.0667 205.952 24.65V13.625H208.802ZM228.912 13.625C230.762 13.625 232.379 13.9833 233.762 14.7C235.162 15.4 236.237 16.4167 236.987 17.75C237.754 19.0667 238.137 20.6083 238.137 22.375C238.137 24.1417 237.754 25.675 236.987 26.975C236.237 28.275 235.162 29.275 233.762 29.975C232.379 30.6583 230.762 31 228.912 31H223.237V13.625H228.912ZM228.912 28.675C230.946 28.675 232.504 28.125 233.587 27.025C234.671 25.925 235.212 24.375 235.212 22.375C235.212 20.3583 234.671 18.7833 233.587 17.65C232.504 16.5167 230.946 15.95 228.912 15.95H226.087V28.675H228.912ZM243.812 13.625V31H240.962V13.625H243.812ZM255.479 31.175C253.862 31.175 252.37 30.8 251.004 30.05C249.654 29.2833 248.579 28.225 247.779 26.875C246.995 25.5083 246.604 23.975 246.604 22.275C246.604 20.575 246.995 19.05 247.779 17.7C248.579 16.35 249.654 15.3 251.004 14.55C252.37 13.7833 253.862 13.4 255.479 13.4C257.112 13.4 258.604 13.7833 259.954 14.55C261.32 15.3 262.395 16.35 263.179 17.7C263.962 19.05 264.354 20.575 264.354 22.275C264.354 23.975 263.962 25.5083 263.179 26.875C262.395 28.225 261.32 29.2833 259.954 30.05C258.604 30.8 257.112 31.175 255.479 31.175ZM255.479 28.7C256.629 28.7 257.654 28.4417 258.554 27.925C259.454 27.3917 260.154 26.6417 260.654 25.675C261.17 24.6917 261.429 23.5583 261.429 22.275C261.429 20.9917 261.17 19.8667 260.654 18.9C260.154 17.9333 259.454 17.1917 258.554 16.675C257.654 16.1583 256.629 15.9 255.479 15.9C254.329 15.9 253.304 16.1583 252.404 16.675C251.504 17.1917 250.795 17.9333 250.279 18.9C249.779 19.8667 249.529 20.9917 249.529 22.275C249.529 23.5583 249.779 24.6917 250.279 25.675C250.795 26.6417 251.504 27.3917 252.404 27.925C253.304 28.4417 254.329 28.7 255.479 28.7ZM272.883 31.175C271.717 31.175 270.667 30.975 269.733 30.575C268.8 30.1583 268.067 29.575 267.533 28.825C267 28.075 266.733 27.2 266.733 26.2H269.783C269.85 26.95 270.142 27.5667 270.658 28.05C271.192 28.5333 271.933 28.775 272.883 28.775C273.867 28.775 274.633 28.5417 275.183 28.075C275.733 27.5917 276.008 26.975 276.008 26.225C276.008 25.6417 275.833 25.1667 275.483 24.8C275.15 24.4333 274.725 24.15 274.208 23.95C273.708 23.75 273.008 23.5333 272.108 23.3C270.975 23 270.05 22.7 269.333 22.4C268.633 22.0833 268.033 21.6 267.533 20.95C267.033 20.3 266.783 19.4333 266.783 18.35C266.783 17.35 267.033 16.475 267.533 15.725C268.033 14.975 268.733 14.4 269.633 14C270.533 13.6 271.575 13.4 272.758 13.4C274.442 13.4 275.817 13.825 276.883 14.675C277.967 15.5083 278.567 16.6583 278.683 18.125H275.533C275.483 17.4917 275.183 16.95 274.633 16.5C274.083 16.05 273.358 15.825 272.458 15.825C271.642 15.825 270.975 16.0333 270.458 16.45C269.942 16.8667 269.683 17.4667 269.683 18.25C269.683 18.7833 269.842 19.225 270.158 19.575C270.492 19.9083 270.908 20.175 271.408 20.375C271.908 20.575 272.592 20.7917 273.458 21.025C274.608 21.3417 275.542 21.6583 276.258 21.975C276.992 22.2917 277.608 22.7833 278.108 23.45C278.625 24.1 278.883 24.975 278.883 26.075C278.883 26.9583 278.642 27.7917 278.158 28.575C277.692 29.3583 277 29.9917 276.083 30.475C275.183 30.9417 274.117 31.175 272.883 31.175Z" fill="#01193D"/>
<path d="M294 30L301 23.2317L294 16" stroke="#01193D" stroke-width="2"/>
<path d="M304 30L311 23.2317L304 16" stroke="#01193D" stroke-width="2"/>
</svg>
