<svg width="8" height="17" viewBox="0 0 8 17" fill="none" xmlns="http://www.w3.org/2000/svg">
<g clip-path="url(#clip0_3_2014)">
<path d="M1.82608 16.9522H5.2657V8.43074H7.66666L7.9227 5.5791H5.2657V3.95504C5.2657 3.28154 5.40096 3.01883 6.05797 3.01883H7.9227V0.0477676H5.54106C2.98067 0.0477676 1.82608 1.1655 1.82608 3.30065V5.57432H0.0338135V8.46418H1.82608V16.9522Z" fill="#01193D"/>
<path d="M1.88404 16.8901C1.88404 16.9666 1.8937 16.9379 1.8937 16.9522C1.8937 16.8233 1.87921 16.8949 1.88404 16.8901Z" fill="#222222"/>
<path d="M1.85993 15.6004L1.86476 15.6243L1.8551 15.4333L1.85993 15.6004Z" fill="#222222"/>
<path d="M1.85996 14.3967C1.84546 14.5114 1.85996 14.8314 1.85996 15.0464V15.0798L1.86962 15.1753C1.86962 14.9126 1.85996 14.5735 1.86479 14.392L1.85996 14.3967Z" fill="#222222"/>
<path d="M1.89852 13.7567C1.89369 13.7949 1.89369 13.6182 1.89852 13.9048C1.89852 13.8904 1.89852 13.8856 1.89852 13.8761C1.89852 13.8522 1.89852 13.814 1.89852 13.7519V13.7567Z" fill="#222222"/>
<path d="M1.89368 13.8761C1.89851 13.7949 1.89368 14.0051 1.89368 13.8761Z" fill="#222222"/>
<path d="M1.89368 13.2933V13.4605C1.90334 13.4271 1.90334 13.279 1.90817 13.3316C1.90817 13.1596 1.90334 13.1978 1.89368 13.2933Z" fill="#222222"/>
<path d="M1.88891 13.4032V13.2217C1.87925 13.2456 1.87441 13.2504 1.88891 13.3077C1.88408 13.2933 1.88891 13.3268 1.88891 13.408V13.4032Z" fill="#222222"/>
<path d="M1.88405 13.5083C1.88405 13.6038 1.87922 13.7232 1.87439 13.5561C1.87439 13.8761 1.88888 13.8283 1.88405 13.5083Z" fill="#222222"/>
<path d="M1.89853 12.252C1.89853 12.252 1.88886 12.3094 1.88403 12.3189V12.4431C1.88886 12.381 1.8937 12.2616 1.89853 12.252Z" fill="#222222"/>
<path d="M1.88887 12.3189V12.1326C1.88403 12.2998 1.88887 12.3285 1.88887 12.3189Z" fill="#222222"/>
<path d="M1.85986 13.1023L1.87436 13.408L1.85986 13.045V13.1023Z" fill="#222222"/>
<path d="M1.90339 11.5451L1.90822 11.6502L1.89856 11.4639L1.90339 11.5451Z" fill="#222222"/>
<path d="M1.89856 11.077C1.90339 11.1534 1.90822 10.9719 1.91305 11.0531C1.91305 10.9528 1.90339 10.8334 1.89856 10.7187C1.89856 10.8238 1.89856 10.9337 1.89856 11.077Z" fill="#222222"/>
<path d="M1.89368 10.5563C1.89368 10.5993 1.89368 10.6566 1.90334 10.7187C1.90334 10.671 1.90334 10.6232 1.89368 10.5563Z" fill="#222222"/>
<path d="M1.88403 11.8221C1.88403 11.8221 1.8937 11.7791 1.8937 11.6788L1.88403 11.7505C1.88403 11.7505 1.88403 11.7983 1.88403 11.8221Z" fill="#222222"/>
<path d="M1.86954 12.6198C1.86471 12.51 1.85988 12.2855 1.85022 12.5052C1.85505 12.5816 1.85988 12.4574 1.86954 12.6198Z" fill="#222222"/>
<path d="M1.86951 11.9272V12.1231C1.86951 12.1231 1.86951 12.0849 1.87434 12.1374V11.9272H1.86951Z" fill="#222222"/>
<path d="M1.86475 11.8317L1.86958 11.9272V11.8556L1.86475 11.8317Z" fill="#222222"/>
<path d="M1.8841 10.8907C1.8841 10.7808 1.8841 10.7044 1.87927 10.6089C1.87927 10.7235 1.87927 10.8382 1.87927 10.948C1.87927 10.9623 1.88893 11.0101 1.88893 10.8907H1.8841Z" fill="#222222"/>
<path d="M1.8841 11.2633C1.8841 11.2298 1.8841 11.1868 1.87927 11.1534C1.87927 11.2012 1.87927 11.2489 1.87927 11.2919C1.87927 11.2824 1.87927 11.2728 1.87927 11.2633H1.8841Z" fill="#222222"/>
<path d="M1.81641 9.26665C1.81641 9.26665 1.83573 9.50548 1.82607 9.69654C1.8309 9.88283 1.86472 9.76341 1.87921 9.59623C1.87921 9.59146 1.86955 9.59146 1.86472 9.39561C1.85988 9.46249 1.85505 9.82551 1.84539 9.66311C1.84539 9.40517 1.84539 9.45293 1.85505 9.32874C1.84539 9.43383 1.84056 9.00393 1.82124 9.05647V9.28098C1.82124 9.28098 1.82124 9.20455 1.82124 9.26665H1.81641Z" fill="#222222"/>
<path d="M1.87927 9.96404V10.0452C1.87927 9.97359 1.88893 9.90672 1.89377 9.7682C1.89377 9.63445 1.8841 9.60579 1.8841 9.60101V9.9927V9.96404H1.87927Z" fill="#222222"/>
<path d="M1.87926 10.4035C1.8696 10.3414 1.86476 10.1503 1.8551 10.265C1.8551 10.499 1.86476 10.4274 1.8696 10.5707C1.8696 10.1933 1.87443 10.6805 1.87926 10.4083C1.87926 10.4895 1.87926 10.5516 1.87926 10.6137V10.4178V10.4274C1.87926 10.4512 1.87926 10.4417 1.87926 10.4274V10.4178C1.87926 10.4178 1.87926 10.4083 1.87926 10.3987C1.87926 10.2888 1.87926 10.3796 1.87926 10.4178V10.0405C1.87443 10.1264 1.87443 10.222 1.87443 10.3987L1.87926 10.4035Z" fill="#222222"/>
<path d="M1.83571 12.147C1.83571 12.1756 1.84054 12.1995 1.83571 12.2855C1.83571 12.3619 1.83571 12.2855 1.82605 12.2855C1.82605 12.338 1.83088 12.4718 1.83571 12.3046V12.2759C1.83571 12.1231 1.8502 11.9272 1.8502 11.9559C1.84054 11.9989 1.83571 12.0419 1.82605 12.1422L1.83571 12.147Z" fill="#222222"/>
<path d="M1.85507 11.2633V10.948L1.84058 11.1104V11.1009C1.84058 11.2824 1.85024 11.2394 1.85507 11.2633Z" fill="#222222"/>
<path d="M1.8841 9.54369L1.8986 9.58668L1.87927 9.40517L1.8841 9.54369Z" fill="#222222"/>
<path d="M1.88403 9.1329L1.8937 9.14723L1.88886 9.04214L1.88403 9.1329Z" fill="#222222"/>
<path d="M5.37204 3.45827L5.35754 3.54425C5.36237 3.50604 5.37204 3.48216 5.37204 3.45827Z" fill="#222222"/>
<path d="M1.92749 2.62714C1.95164 2.4934 1.99995 2.35487 1.98546 2.3692L1.96614 2.40742C1.95164 2.49817 1.93232 2.56982 1.92749 2.62714Z" fill="#222222"/>
<path d="M7.49762 0.0477676H7.45897C7.42516 0.0477676 7.39617 0.0477676 7.36719 0.0527831C7.40583 0.0527831 7.45414 0.0527831 7.49762 0.0477676Z" fill="#222222"/>
<path d="M6.81165 5.51175L6.92276 5.50267C6.75368 5.50267 6.82614 5.50721 6.81165 5.51175Z" fill="#222222"/>
<path d="M0.0917806 6.71116C0.0917806 6.58219 0.0917806 6.49621 0.0966115 6.41978C0.0917806 6.55831 0.0821187 6.67295 0.0917806 6.71116Z" fill="#222222"/>
<path d="M5.39609 3.17646C5.35744 3.22422 5.34778 3.2481 5.34778 3.2481C5.38159 3.19078 5.40575 3.1669 5.39609 3.17646Z" fill="#222222"/>
<path d="M0.0965576 6.08542C0.0965576 6.08542 0.0965576 6.12363 0.0965576 6.14751C0.0965576 6.23827 0.0965576 6.31947 0.0965576 6.41978C0.0965576 6.3147 0.101389 6.20006 0.0965576 6.08542Z" fill="#222222"/>
<path d="M1.26575 8.44029C1.26575 8.44029 1.23193 8.44029 1.23193 8.44531C1.23676 8.44531 1.25126 8.44531 1.26575 8.44029Z" fill="#222222"/>
<path d="M2.91786 0.66371L2.9082 0.668248L2.91786 0.659172V0.66371Z" fill="#222222"/>
<path d="M3.18355 0.487213C3.07244 0.568416 3.0048 0.606629 2.91785 0.663948C2.95166 0.649618 2.99031 0.640065 3.02413 0.630512L3.18355 0.487213Z" fill="#222222"/>
<path d="M5.32371 5.04411L5.33337 4.82439C5.34786 5.0871 5.34303 5.27817 5.35752 5.07277C5.32371 5.04411 5.35752 4.22253 5.32371 4.1891V4.0458C5.32854 4.08401 5.33337 4.09357 5.33337 4.13655C5.35269 3.85473 5.29955 3.92638 5.3382 3.57291C5.35752 3.4535 5.39617 3.37707 5.37201 3.4535C5.39134 3.36752 5.42515 3.28632 5.48313 3.22422C5.53627 3.17645 5.52177 3.18601 5.47346 3.23855C5.55559 3.13824 5.68602 3.09047 5.82129 3.07137C5.87926 3.05704 6.01453 3.04271 6.08216 3.03793C6.19327 3.03793 6.02902 3.03793 6.05317 3.04748L6.29472 3.03793C6.39134 3.04748 6.19327 3.05226 6.02902 3.05226C6.25124 3.08092 6.22709 3.04271 6.71018 3.06181H6.48313C6.62805 3.0857 6.8068 3.07614 7.06284 3.0857C7.00003 3.08092 6.55076 3.05704 6.81163 3.05226C6.88409 3.05226 6.98071 3.05226 7.12081 3.05226C7.12081 3.06181 7.2609 3.06181 7.42999 3.06181L7.42032 3.07614C7.6039 3.07614 7.58941 3.06659 7.70052 3.05704C7.8068 3.05704 7.88892 3.06181 7.99037 3.06659C7.99037 3.02838 8.00003 2.99017 8.00486 2.94718C8.00486 2.58893 7.98554 3.1669 7.98554 2.77044C7.99037 2.49817 7.98554 2.30711 7.97588 1.9823C7.98071 1.79123 7.98554 2.01573 7.99037 1.94886L7.98071 1.78168C7.98071 1.73869 7.98071 1.75302 7.98554 1.76257C7.98554 1.61927 7.97105 1.75302 7.96622 1.52852C7.95172 1.46642 7.99037 1.06996 7.97105 0.792919C7.97105 0.726047 7.98071 0.826356 7.98554 0.807249C7.97105 0.453779 7.97588 0.525428 7.96139 0.167182V0.0191065L7.78264 0.0143299C7.98554 0.0238831 7.72467 0.038213 7.50728 0.0477662C7.57974 0.0525428 7.64255 0.0573195 7.67636 0.0620961L7.32371 0.0716493C7.28023 0.0716493 7.31887 0.0620961 7.37685 0.0573195C7.35269 0.0573195 7.33337 0.0573195 7.31404 0.0573195C7.18844 0.0525428 7.25124 0.0429896 7.34303 0.0334364C7.38651 0.0334364 7.42515 0.038213 7.46863 0.0429896C7.55559 0.0334364 7.63772 0.0238831 7.61839 0.0143299C7.58458 0.0143299 7.54593 0.0143299 7.50245 0.0143299C7.5266 0.0143299 7.5411 0.0143299 7.53143 0.00955324C7.52177 0.00955324 7.48313 0.00955324 7.42515 0.0143299L7.34303 0H7.32371H6.85994C6.53143 0.0143299 6.24158 0.0429896 5.71984 0.0477662C5.85028 0.0334364 5.74883 0.0286597 5.75366 0.0143299C5.89858 0.0286597 6.15945 0.00955324 6.42999 0.0143299C6.28989 0.0143299 6.31887 0.00477662 6.35752 0.00477662L5.87443 0.0191065C5.87443 0.0191065 5.77298 0.00955324 5.64255 0.00477662C5.73916 0.0238831 5.28023 0.0238831 5.08216 0.038213C5.06767 0.0286597 5.11598 0.0238831 5.35752 0.0143299C5.09182 0 5.01453 0.0525428 4.75366 0.0620961C4.81163 0.0573195 4.84544 0.0525428 4.86477 0.0477662C4.7295 0.0573195 4.39617 0.109862 4.47346 0.0907558L4.53143 0.0812026C4.3382 0.105086 4.04351 0.167182 3.79714 0.248384C3.55076 0.32481 3.36235 0.429896 3.3382 0.449002C3.3382 0.449002 3.37201 0.406013 3.39617 0.391683C3.29472 0.449002 3.19327 0.511099 3.10148 0.582748C3.00486 0.649621 2.91791 0.726047 2.83578 0.807249C2.87443 0.754706 2.66187 0.874122 2.91308 0.66395C2.84061 0.726047 2.73433 0.778589 2.6039 0.931441C2.65221 0.888452 2.73433 0.835909 2.67153 0.898005C2.49279 1.05563 2.5411 0.998314 2.34786 1.22759C2.41066 1.15594 2.35752 1.25148 2.28023 1.37567C2.28989 1.35178 2.25124 1.37567 2.28023 1.32312C2.22709 1.43776 2.15945 1.54285 2.12564 1.66226C2.15945 1.57629 2.11114 1.63838 2.0725 1.71003C2.08216 1.69092 2.04834 1.76735 2.0097 1.85811C1.98071 1.95364 1.94689 2.05872 1.9324 2.11127L1.98554 1.96319C1.91791 2.16381 1.90342 2.2689 1.89858 2.3692C1.88409 2.46951 1.87443 2.5746 1.85511 2.77999C1.85511 2.73223 1.83578 2.65103 1.8068 2.8612C1.81163 2.96151 1.85028 3.29109 1.86477 3.65889L1.85511 3.73054L1.86477 4.01236C1.85028 3.83563 1.79714 3.34841 1.7923 3.07614C1.78264 3.23377 1.77781 3.11913 1.77781 3.35319C1.76815 3.43439 1.76815 3.22422 1.77298 3.15735C1.76332 3.34364 1.76815 3.52037 1.76332 3.70188C1.77781 3.678 1.77781 4.11745 1.7923 4.09834L1.77781 3.50604C1.7923 3.48216 1.82129 3.84996 1.82129 4.23209C1.81646 4.3324 1.7923 4.16044 1.78747 4.16521C1.7923 4.21298 1.79714 4.53301 1.7923 4.56645L1.78264 4.40405C1.77781 4.61899 1.80197 4.75274 1.78747 5.01068C1.78747 5.10143 1.76815 5.27817 1.77781 5.2925C1.79714 5.1492 1.85028 5.12054 1.86477 5.21607C1.86477 5.23518 1.85511 5.41191 1.85028 5.57909C1.75366 5.57909 1.6667 5.56954 1.60873 5.56954C1.45897 5.55521 1.83095 5.5361 1.70535 5.52655C1.70052 5.52655 1.61839 5.53611 1.58457 5.53611C1.48796 5.53611 1.62322 5.52177 1.42032 5.52655C1.38651 5.54088 1.00486 5.52655 1.32371 5.54088C1.12081 5.54088 1.11114 5.54088 0.87443 5.54088C0.951724 5.55044 0.661869 5.57432 0.458971 5.57909C0.468633 5.57909 0.425154 5.56954 0.405831 5.56954C0.270565 5.56954 0.149792 5.56954 0.0435119 5.56954C0.0435119 5.78927 0.0435119 5.97555 0.038681 6.22394C0.038681 6.25737 0.0290191 6.44366 0.0241882 6.36246C0.0241882 6.415 0.03385 6.46755 0.03385 6.58219C0.0193573 6.80669 0.03385 6.31947 0.0145264 6.49621C0.0241882 6.51054 0.0290191 6.79713 0.03385 6.96431C0.0483428 6.91177 0.03385 6.57741 0.03385 6.41023C0.0531737 6.41023 0.0724974 6.7016 0.0821592 7.09806C0.0869901 7.41332 0.0676665 7.23658 0.0724974 7.28913C0.0724974 7.88143 0.106314 7.79545 0.0918211 8.28744C0.0773283 8.48328 0.0676665 8.29699 0.0580046 8.33998C0.0580046 8.08204 0.0676665 7.94352 0.0676665 7.77156V7.98651C0.0580046 7.90531 0.0531737 7.73335 0.0580046 7.63782C0.0531737 7.73813 0.0531737 8.0916 0.0531737 8.46417C0.280227 8.46417 0.50728 8.46417 0.700517 8.46895C0.782642 8.46895 0.922739 8.4594 0.855106 8.45462H0.710179C0.574913 8.44507 0.985541 8.44029 0.801966 8.44029C1.00003 8.43551 1.21742 8.42118 1.49279 8.42596L1.54593 8.44029C1.54593 8.44029 1.36718 8.43074 1.28989 8.44029C1.41549 8.43551 1.69085 8.4594 1.85994 8.44029L1.64738 8.43074C1.71984 8.43074 1.8068 8.42596 1.89375 8.42118C1.89375 8.51672 1.89858 8.60747 1.90342 8.69345C1.90342 8.77943 1.90342 8.85108 1.90342 8.93706C1.91791 8.8272 1.90342 8.87974 1.91791 8.70778C1.91308 8.74599 1.90825 8.72211 1.90825 8.66957C1.90825 8.59792 1.90825 8.49761 1.90825 8.40686C1.82129 8.40686 1.74883 8.40686 1.69569 8.40686C1.6667 8.40686 1.6667 8.40686 1.72467 8.41641C1.54593 8.3973 1.41549 8.40685 1.18361 8.39252C1.18844 8.39252 1.26573 8.40208 1.06284 8.3973C1.04834 8.3973 1.02902 8.3973 1.01936 8.3973C1.01453 8.3973 1.0097 8.3973 1.00486 8.3973H1.01453C1.06284 8.3973 1.10148 8.3973 1.12081 8.40208C1.01936 8.41163 0.690855 8.41163 0.579744 8.41641C0.458971 8.41641 0.632884 8.41163 0.565251 8.40686L0.401 8.41641C0.401 8.41641 0.0773283 8.3973 0.362352 8.39252H0.106314H0.096652C0.096652 8.37342 0.096652 8.38775 0.096652 8.33998C0.096652 8.29699 0.096652 8.25878 0.096652 8.22057C0.096652 8.14414 0.096652 8.07727 0.096652 8.00562C0.096652 7.8862 0.0869901 7.69991 0.096652 7.805V7.40376C0.096652 7.0073 0.0773283 6.58696 0.096652 6.13796C0.096652 5.99944 0.096652 5.87047 0.096652 5.65074C0.096652 5.64597 0.101483 5.64119 0.106314 5.64119V5.63164C0.178778 5.63164 0.275396 5.63164 0.362352 5.63164C0.473464 5.63164 0.565251 5.63164 0.599067 5.63164C0.787473 5.65552 1.43482 5.63641 1.74399 5.64119L1.76332 5.63164H1.89375C1.89375 5.44057 1.89375 5.23995 1.88409 4.98202L1.87443 4.99635C1.86477 4.77662 1.88409 4.42793 1.87926 4.07446C1.87926 4.09834 1.87926 4.1891 1.87926 4.25119C1.90825 3.83563 1.85028 3.36274 1.88892 2.99017C1.88892 2.89463 1.89858 2.82776 1.90825 2.76566C1.90825 2.77522 1.90825 2.77999 1.90825 2.78955C1.90825 2.77999 1.90825 2.76566 1.90825 2.75133C1.91308 2.70834 1.92274 2.66536 1.92757 2.62237C1.91791 2.66536 1.91308 2.70357 1.90825 2.73223C1.91791 2.66058 1.92274 2.55072 1.94689 2.44563L1.96622 2.40264C1.96622 2.40264 1.96622 2.38831 1.96622 2.37876C1.99037 2.27845 1.97588 2.29278 1.95656 2.3501C1.96622 2.30233 1.97105 2.25934 1.98071 2.21158C2.02902 2.13515 2.04834 1.93931 2.11598 1.839C2.12564 1.76257 2.34303 1.35178 2.37201 1.30402C2.37201 1.30402 2.39617 1.28013 2.36235 1.32312C2.43965 1.23237 2.50245 1.12728 2.57974 1.05086L2.62805 1.0222C2.68602 0.955324 2.73916 0.883675 2.8068 0.831132C2.93723 0.740376 2.99037 0.702163 2.87443 0.807249C3.01453 0.67828 3.09182 0.649621 3.14496 0.606631C3.20293 0.568418 3.25607 0.530205 3.401 0.458556L3.39134 0.472886C3.49279 0.415566 3.6667 0.343917 3.73433 0.329587C3.85994 0.291374 4.17395 0.200618 4.54593 0.148075C4.91791 0.0955324 5.34786 0.0812026 5.68602 0.0907558C5.55559 0.0620961 6.00003 0.105086 6.02902 0.0812026C6.06767 0.0859792 6.16429 0.0907558 6.05317 0.0955324C6.401 0.0907558 6.57491 0.105086 6.81163 0.0859792C6.85028 0.0907558 6.73916 0.0955324 6.77298 0.100309C6.80197 0.100309 6.88409 0.0955324 6.91791 0.100309C6.95172 0.100309 6.86477 0.105086 6.81163 0.109862C7.16429 0.109862 7.20293 0.0907558 7.22709 0.0716493C7.40583 0.0812026 7.49762 0.0812026 7.62322 0.0716493C7.68602 0.076426 7.78747 0.0859792 7.57008 0.0859792C7.61356 0.0859792 7.73916 0.0859792 7.8696 0.0859792C7.8696 0.171958 7.8696 0.262714 7.8696 0.334364C7.8696 0.415566 7.8696 0.468109 7.87926 0.472886C7.87926 0.511099 7.87926 0.644844 7.87926 0.67828C7.87926 0.950548 7.87926 0.974431 7.87926 1.2467V1.17027C7.89858 1.27536 7.88409 1.39477 7.88892 1.60972C7.88409 2.13037 7.88892 1.77213 7.87926 2.31189L7.88892 2.28323C7.91308 2.31666 7.87443 2.74178 7.88409 2.98061V2.90419C7.89375 2.93762 7.89375 2.96151 7.88892 2.99017C7.77298 2.98539 7.53627 2.95673 7.42032 2.95673C7.38651 2.95673 7.47346 2.95673 7.52177 2.95195C7.10631 2.93762 7.46863 2.96628 7.15945 2.97106C7.10148 2.96151 7.23192 2.95195 7.02419 2.95195C6.92274 2.94718 6.42032 2.97584 6.1353 2.96151C6.1981 2.96628 6.2609 2.97584 6.11598 2.97584C6.00486 2.97584 5.85511 2.96628 5.70535 2.99972C5.55559 3.02838 5.41066 3.11913 5.36235 3.21944C5.34303 3.24333 5.33337 3.25288 5.33337 3.25288C5.22226 3.41051 5.21259 3.79741 5.22709 3.89772C5.18844 4.05058 5.24641 4.92947 5.20776 4.92947V5.44057V5.42624C5.20776 5.50267 5.20776 5.56476 5.20776 5.62208C5.32371 5.62208 5.41549 5.62208 5.50245 5.61731L5.66187 5.60775C5.73916 5.60775 5.68119 5.61253 5.67636 5.61731C6.15945 5.62208 6.20776 5.62208 6.61356 5.60775L6.65704 5.61731C6.76332 5.61253 7.36235 5.63641 7.82129 5.61731C7.82129 5.61731 7.81646 5.61731 7.77781 5.62208C7.8068 5.62208 7.83578 5.62208 7.86477 5.62208C7.84061 5.85614 7.81163 6.12363 7.7923 6.35291C7.76815 6.59652 7.74883 6.79713 7.76332 6.88789L7.744 7.23658C7.78747 6.78758 7.75849 7.30346 7.77781 7.12194C7.76332 7.29868 7.72467 7.57572 7.744 7.36077V7.32734C7.73433 7.24614 7.69086 7.88143 7.67636 7.87187C7.66187 8.04861 7.64255 8.22534 7.62805 8.3973C6.94689 8.3973 6.27057 8.38775 5.62805 8.38775L5.72467 8.40686H5.42999C5.35269 8.40208 5.32854 8.39252 5.53627 8.39252C5.4638 8.38775 5.35752 8.39252 5.22226 8.39252C5.22226 8.46417 5.22709 8.50716 5.23192 8.51194C5.23192 8.72211 5.22226 8.67435 5.21743 8.6027C5.21743 8.55015 5.20776 8.35431 5.20776 8.45462V8.65046V8.61225C5.21259 8.75077 5.22226 8.76033 5.22226 9.00871C5.22226 9.16634 5.21259 9.08991 5.21259 9.15201C5.21259 9.15201 5.21259 9.17111 5.21259 9.24754V9.61056L5.22226 9.46726C5.22709 9.62967 5.22226 9.81118 5.23675 9.644C5.21259 9.89238 5.22709 11.0053 5.22226 11.1534C5.23192 11.3779 5.23192 11.6024 5.23192 11.8795C5.23192 11.8126 5.25124 11.7696 5.24641 12.0084C5.21743 11.9224 5.23192 12.4431 5.21259 12.6389C5.22709 12.467 5.21259 13.3172 5.23675 13.045C5.23675 13.2456 5.22709 13.0593 5.21743 13.2074C5.22709 13.6802 5.20776 14.2534 5.21743 14.8362C5.21743 14.8457 5.22709 14.7454 5.23192 14.8744L5.21259 15.1849C5.21259 15.2995 5.23675 15.29 5.22226 15.5049C5.22226 15.4763 5.23192 15.4285 5.23192 15.5049C5.23192 15.9969 5.23192 16.4507 5.22709 16.9236C4.89375 16.9236 4.56042 16.9236 4.22709 16.9236C3.90342 16.9188 3.57491 16.914 3.19327 16.9045C3.35269 16.914 3.24641 16.914 3.12564 16.914C3.20293 16.914 3.12564 16.9236 3.14013 16.9283L2.64738 16.914C2.55559 16.9283 2.12081 16.914 2.06767 16.9283H2.22226C2.01453 16.9427 2.51211 16.9618 2.48313 16.9857C2.71501 16.9666 3.09665 17.0143 3.47829 16.9857C3.56042 16.9857 3.40583 16.9904 3.44931 17C3.54593 16.9904 3.66187 16.9904 3.87926 16.9904H3.85511C4.42515 16.9952 4.71018 17 5.31887 17.0048C5.31887 16.957 5.31887 16.8901 5.31887 16.8185L5.30921 16.871C5.30921 16.7468 5.31404 16.6991 5.31887 16.6274C5.30438 16.4555 5.31887 17.043 5.29955 16.8854C5.32371 16.6847 5.29955 15.8584 5.32371 15.7294C5.32371 15.5049 5.30921 15.7963 5.30921 15.5718V15.5145V15.4571C5.30921 15.3091 5.31887 15.2374 5.32371 15.2326C5.32371 15.2709 5.32371 15.333 5.32371 15.3712C5.33337 15.1801 5.32371 14.8362 5.32371 14.7693V14.9843C5.31404 14.3681 5.31404 13.6898 5.30921 13.0402V13.0832C5.29472 12.6342 5.30921 12.7249 5.30921 12.2282V12.2473C5.30921 12.1469 5.30438 12.018 5.30438 11.8795C5.30921 12.0037 5.31404 11.6454 5.32371 11.8078C5.31404 11.3206 5.31404 11.569 5.29472 11.2442L5.30438 11.1677C5.29472 11.0579 5.29472 11.0483 5.28989 10.7999C5.29955 11.0006 5.30438 10.6423 5.31404 10.8668C5.33337 10.3509 5.29472 10.0978 5.32371 9.85895C5.29955 9.62012 5.30921 10.308 5.30438 10.1742C5.29472 10.2841 5.28506 9.97836 5.28989 9.81596C5.28989 9.64878 5.31887 9.53414 5.31887 9.11857C5.31887 9.15678 5.31887 9.16634 5.31887 9.20455C5.32371 9.04692 5.30921 8.89885 5.31887 8.70778C5.31404 8.65524 5.31404 8.59314 5.30921 8.5406C5.30921 8.48328 5.30921 8.48328 5.29955 8.4594V8.81287C5.29955 8.71256 5.29472 8.56926 5.28989 8.44029C5.36235 8.44029 5.51211 8.44029 5.66187 8.44029C5.60873 8.44029 5.51211 8.44984 5.45414 8.44984C5.59424 8.44984 5.61839 8.44984 5.76815 8.44984C5.75849 8.45462 5.69086 8.4594 5.59424 8.4594C5.51211 8.4594 5.41549 8.4594 5.31887 8.4594C5.31887 8.51194 5.31887 8.55971 5.32371 8.6218C5.32371 8.57404 5.32371 8.4785 5.32371 8.46417C5.34786 8.46417 5.4638 8.46417 5.39134 8.46895C5.56042 8.44507 5.8068 8.46895 6.09182 8.45462L6.0725 8.46417C6.12081 8.46417 6.22709 8.46417 6.29472 8.4594L6.14496 8.47373C6.37685 8.4594 6.58941 8.48328 6.81163 8.47373C6.34786 8.47373 6.70535 8.4594 6.51211 8.45462C7.08216 8.44029 6.84061 8.48328 7.47829 8.4785C7.39134 8.4785 7.15462 8.47373 7.28989 8.46895C7.40583 8.46895 7.56042 8.4785 7.68119 8.48328C7.70535 8.48328 7.72467 8.48328 7.73916 8.48328C7.78264 7.98174 7.71984 8.58837 7.73433 8.33998C7.75849 8.20146 7.74883 8.13459 7.75849 7.95308H7.76815C7.81646 7.48019 7.75849 7.82411 7.80197 7.39899V7.5805L7.81646 7.356L7.82612 7.40376C7.84061 7.16016 7.84544 7.08373 7.87443 6.84968C7.85994 6.90222 7.85511 6.81624 7.87443 6.60607C7.89375 6.46277 7.87443 6.68727 7.90342 6.39112C7.90342 6.45799 7.90342 6.53442 7.88409 6.66339V6.74459C7.90825 6.59174 7.92274 6.35768 7.9324 6.24782C7.9324 6.28603 7.92274 6.32902 7.91791 6.36246L7.94206 5.92779C7.95172 5.86092 7.95172 5.91346 7.95172 5.966C7.95655 5.8848 7.96139 5.8036 7.97105 5.68896C7.97588 5.72239 7.98554 5.71762 7.97105 5.89913L8.00003 5.50745H7.85028C7.8068 5.50745 7.63288 5.49789 7.68119 5.49312C7.44931 5.48834 7.11115 5.51222 6.80197 5.50267C6.77298 5.50267 6.73916 5.50267 6.69086 5.50267C6.401 5.50267 6.14496 5.48834 5.80197 5.50267L5.60873 5.48834C5.3382 5.48834 5.8696 5.50745 5.42515 5.517C5.37201 5.517 5.34303 5.517 5.32371 5.517C5.32371 5.47879 5.3382 5.50745 5.34303 5.47879C5.33337 5.34504 5.31887 5.05844 5.33337 4.77662C5.33337 4.88648 5.33337 4.9438 5.33337 5.03456L5.32371 5.04411ZM6.80197 3.06181C6.73916 3.06181 6.60873 3.07137 6.56525 3.06181C6.63772 3.04748 6.69569 3.05704 6.80197 3.06181ZM7.0097 0.0238831C7.05801 0.0238831 7.13047 0.0238831 7.21259 0.0238831C7.15462 0.0238831 7.09665 0.0238831 7.0097 0.0238831ZM0.0918211 8.30655C0.0918211 8.20624 0.0918211 8.15847 0.0918211 8.30655ZM0.173947 8.41641C0.202932 8.41641 0.202932 8.41641 0.188439 8.41641C0.169116 8.41641 0.149792 8.41641 0.130468 8.41641C0.115976 8.41641 0.101483 8.41641 0.0869901 8.41641C0.106314 8.41641 0.0869901 8.41641 0.173947 8.41641ZM5.22226 9.17589V9.11857C5.22709 9.24754 5.22226 9.20933 5.22226 9.17589Z" fill="#222222"/>
<path d="M7.57971 0.009552C7.57971 0.009552 7.60387 0.009552 7.6087 0.0145675C7.63285 0.0145675 7.63285 0.0145675 7.57971 0.009552Z" fill="#222222"/>
<path d="M1.57971 5.53133C1.62802 5.53133 1.66184 5.53133 1.69565 5.53634C1.69565 5.53634 1.6715 5.53133 1.57971 5.53133Z" fill="#222222"/>
<path d="M1.75361 8.3973H1.55554C1.63767 8.3973 1.67631 8.40232 1.72462 8.40232C1.72462 8.40232 1.67631 8.3973 1.74878 8.3973H1.75361Z" fill="#222222"/>
<path d="M1.82605 10.0166C1.82605 10.0548 1.82605 10.0643 1.82605 10.1026V10.093C1.83088 9.97358 1.82605 9.89238 1.82605 10.0166Z" fill="#222222"/>
<path d="M1.85505 8.55971C1.85505 8.55971 1.85022 8.69345 1.85505 8.82242V8.79854C1.86955 8.83675 1.86471 8.69823 1.85505 8.55493V8.55971Z" fill="#222222"/>
<path d="M1.8551 8.85586C1.8551 8.89885 1.8551 8.93706 1.8551 8.98005C1.85993 8.99438 1.8551 8.93228 1.8551 8.85586Z" fill="#222222"/>
<path d="M0.550664 8.41104C0.613466 8.41104 0.589311 8.40197 0.627958 8.40197C0.700422 8.39289 0.207669 8.41558 0.550664 8.41104Z" fill="#222222"/>
<path d="M1.82605 8.6648L1.83571 8.61703L1.82605 8.54538V8.6648Z" fill="#222222"/>
<path d="M1.73917 8.46919L1.67637 8.46417H1.52661L1.73917 8.46919Z" fill="#222222"/>
<path d="M0.0483581 7.1315V6.90222C0.0483581 6.90222 0.0386963 6.94043 0.0386963 7.02641C0.0386963 7.08373 0.0386963 7.16494 0.0483581 7.1315Z" fill="#222222"/>
<path d="M0.0144745 7.82889C0.0144745 7.76679 0.0193054 7.76201 0.0241363 7.72858H0.00964355L0.0144745 7.82889Z" fill="#222222"/>
<path d="M0.00966184 7.15538C0.00966184 7.15538 0 6.82102 0 7.11239C0 7.13628 0.00966184 7.36555 0.00966184 7.15538Z" fill="#222222"/>
<path d="M1.82129 5.46445V5.52177H1.84544C1.83578 5.49789 1.83095 5.48356 1.82129 5.46445Z" fill="#222222"/>
<path d="M1.84541 2.40264C1.78744 2.67491 1.84541 2.46951 1.80676 2.71312C1.80676 2.78 1.83575 2.5125 1.83092 2.57938C1.85024 2.4122 1.8744 2.33099 1.84541 2.40264Z" fill="#222222"/>
<path d="M1.83088 2.57938C1.83088 2.60326 1.83088 2.63192 1.82605 2.66536C1.82605 2.62237 1.82605 2.59848 1.83088 2.57938Z" fill="#222222"/>
<path d="M2.314 16.8947L2.13525 16.8901L2.2512 16.8992L2.314 16.8947Z" fill="#222222"/>
<path d="M1.97581 16.9133L1.93233 16.8997L1.82605 16.9133C1.8647 16.9133 1.94199 16.9133 1.97581 16.9133Z" fill="#222222"/>
<path d="M7.29469 3.09H7.30918C7.2802 3.08092 7.24155 3.08092 7.15942 3.08092L7.29952 3.09H7.29469Z" fill="#222222"/>
<path d="M5.34787 3.66845L5.3527 3.63023L5.33337 3.70188L5.34787 3.66845Z" fill="#222222"/>
<path d="M5.35754 5.48834C5.35754 5.48834 5.35754 5.48834 5.35754 5.48356C5.35754 5.4549 5.35754 5.42147 5.35754 5.39758C5.35754 5.43102 5.35754 5.45968 5.35754 5.48834V5.49312C5.35754 5.49312 5.36721 5.49312 5.36721 5.48834H5.35754Z" fill="#222222"/>
</g>
<defs>
<clipPath id="clip0_3_2014">
<rect width="8" height="17" fill="white"/>
</clipPath>
</defs>
</svg>
