<svg width="18" height="19" viewBox="0 0 18 19" fill="none" xmlns="http://www.w3.org/2000/svg">
<g clip-path="url(#clip0_3_2508)">
<path d="M4.0723 6.02029H0.383423V17.933H4.0723V6.02029Z" fill="#01193D"/>
<path d="M0.456565 17.8965C0.456565 17.9452 0.468739 17.9269 0.468739 17.933C0.468739 17.8539 0.450477 17.8965 0.456565 17.8965Z" fill="#3D0102"/>
<path d="M0.426131 17.1356L0.432218 17.1478L0.420044 17.0382L0.426131 17.1356Z" fill="#3D0102"/>
<path d="M0.426085 16.4234C0.407823 16.4904 0.426085 16.6791 0.426085 16.8069V16.8252L0.43826 16.8799C0.43826 16.7278 0.426085 16.5269 0.432172 16.4173L0.426085 16.4234Z" fill="#3D0102"/>
<path d="M0.468648 16.046C0.468648 16.046 0.462561 15.9669 0.468648 16.1373C0.468648 16.1312 0.468648 16.1251 0.468648 16.119C0.468648 16.1008 0.468648 16.0825 0.468648 16.046Z" fill="#3D0102"/>
<path d="M0.468628 16.119C0.474715 16.0703 0.468628 16.1921 0.468628 16.119Z" fill="#3D0102"/>
<path d="M0.468628 15.7721V15.8695C0.468628 15.8695 0.480802 15.7599 0.48689 15.7964C0.48689 15.6929 0.480802 15.7173 0.468628 15.7721Z" fill="#3D0102"/>
<path d="M0.462584 15.839V15.7295C0.462584 15.7295 0.444322 15.7477 0.462584 15.7782C0.456497 15.7721 0.462584 15.7903 0.462584 15.839Z" fill="#3D0102"/>
<path d="M0.45651 15.8999C0.45651 15.9547 0.450423 16.0277 0.444336 15.9303C0.444336 16.119 0.462598 16.0886 0.45651 15.8999Z" fill="#3D0102"/>
<path d="M0.474805 15.1573C0.474805 15.1573 0.46263 15.1877 0.456543 15.1999V15.2729C0.46263 15.2364 0.468717 15.1633 0.474805 15.1573Z" fill="#3D0102"/>
<path d="M0.456563 15.1999V15.0903C0.450476 15.1877 0.456563 15.206 0.456563 15.1999Z" fill="#3D0102"/>
<path d="M0.426025 15.6625L0.444287 15.839L0.426025 15.626V15.6625Z" fill="#3D0102"/>
<path d="M0.474731 14.7433L0.486906 14.8042L0.474731 14.6946V14.7433Z" fill="#3D0102"/>
<path d="M0.474731 14.4633C0.480819 14.512 0.486906 14.4024 0.492993 14.4511C0.492993 14.3781 0.486906 14.3111 0.474731 14.2563C0.474731 14.3172 0.474731 14.3842 0.474731 14.4694V14.4633Z" fill="#3D0102"/>
<path d="M0.468628 14.1589C0.468628 14.1589 0.468628 14.2198 0.480802 14.2563C0.480802 14.232 0.480802 14.2076 0.468628 14.1589Z" fill="#3D0102"/>
<path d="M0.456543 14.9016C0.456543 14.9016 0.468717 14.8772 0.468717 14.8164L0.456543 14.859C0.456543 14.859 0.456543 14.8894 0.456543 14.9016Z" fill="#3D0102"/>
<path d="M0.438289 15.3764C0.432202 15.3094 0.426115 15.1816 0.41394 15.3094C0.420028 15.3581 0.426115 15.279 0.438289 15.3764Z" fill="#3D0102"/>
<path d="M0.438232 14.9686V15.0842C0.438232 15.0842 0.438232 15.0599 0.44432 15.0903V14.9686H0.438232Z" fill="#3D0102"/>
<path d="M0.432129 14.9077L0.438216 14.9685V14.9259L0.432129 14.9077Z" fill="#3D0102"/>
<path d="M0.456527 14.3537C0.456527 14.305 0.456527 14.2502 0.450439 14.1894C0.450439 14.2685 0.450439 14.3294 0.450439 14.3903C0.450439 14.4024 0.462614 14.4268 0.462614 14.3598L0.456527 14.3537Z" fill="#3D0102"/>
<path d="M0.46263 13.9885C0.46263 14.0189 0.46263 14.0494 0.456543 14.0737C0.456543 14.0494 0.468717 13.9946 0.46263 13.9885Z" fill="#3D0102"/>
<path d="M0.456527 14.5729C0.456527 14.5729 0.456527 14.5303 0.450439 14.5059C0.450439 14.5303 0.450439 14.5546 0.450439 14.5911C0.450439 14.5911 0.450439 14.579 0.450439 14.5729H0.456527Z" fill="#3D0102"/>
<path d="M0.371338 13.398C0.371338 13.398 0.395687 13.538 0.383512 13.6537C0.3896 13.7633 0.43221 13.6902 0.450472 13.5928C0.450472 13.5928 0.438298 13.5928 0.43221 13.4772C0.426123 13.5198 0.420036 13.7328 0.407861 13.6354C0.407861 13.4833 0.407861 13.5137 0.420036 13.4346C0.407861 13.4954 0.401774 13.2398 0.377425 13.2763V13.4102C0.377425 13.4102 0.377425 13.3615 0.377425 13.4041L0.371338 13.398Z" fill="#3D0102"/>
<path d="M0.450439 13.8059V13.8546C0.450439 13.7998 0.456527 13.7633 0.468701 13.6902C0.468701 13.6111 0.456527 13.5928 0.456527 13.5928V13.8241V13.8059H0.450439Z" fill="#3D0102"/>
<path d="M0.45048 14.0676C0.438306 14.0311 0.432218 13.9155 0.420044 13.9885C0.420044 14.1285 0.432218 14.0859 0.438306 14.165C0.438306 13.9398 0.444393 14.232 0.45048 14.0676C0.45048 14.1224 0.45048 14.1529 0.45048 14.1894C0.45048 14.1529 0.45048 14.1163 0.45048 14.0737V14.0798V14.0676C0.45048 14.0007 0.45048 14.0555 0.45048 14.0798V13.8546C0.444393 13.9155 0.444393 13.9581 0.444393 14.0676H0.45048Z" fill="#3D0102"/>
<path d="M0.395597 15.0964C0.395597 15.0964 0.401685 15.1268 0.395597 15.1816C0.395597 15.2303 0.395597 15.1816 0.383423 15.1816C0.383423 15.212 0.38951 15.2912 0.395597 15.1938V15.1755C0.395597 15.0842 0.413859 14.9685 0.413859 14.9868C0.401685 15.0112 0.395597 15.0355 0.383423 15.0964H0.395597Z" fill="#3D0102"/>
<path d="M0.419995 14.5729V14.3842L0.401733 14.4816H0.407821C0.407821 14.5851 0.407821 14.5607 0.419995 14.5729Z" fill="#3D0102"/>
<path d="M0.456527 13.5563L0.468701 13.5807L0.450439 13.4772L0.456527 13.5563Z" fill="#3D0102"/>
<path d="M0.456543 13.3189L0.468717 13.325L0.46263 13.2641L0.456543 13.3189Z" fill="#3D0102"/>
<path d="M0.456543 7.38383C0.468717 7.3047 0.486979 7.21339 0.468717 7.22556L0.456543 7.24991C0.456543 7.3047 0.456543 7.34731 0.456543 7.38383Z" fill="#3D0102"/>
<path d="M3.08621 6.01421H3.06187C3.06187 6.01421 3.02534 6.01421 3.00708 6.02029C3.03143 6.02029 3.05578 6.02029 3.08621 6.01421Z" fill="#3D0102"/>
<path d="M4.15149 10.8353L4.16366 10.8962C4.16366 10.7988 4.15758 10.8414 4.15149 10.8353Z" fill="#3D0102"/>
<path d="M0.4504 10.8414C0.4504 10.7501 0.4504 10.7075 0.456487 10.671C0.4504 10.7562 0.438225 10.8231 0.4504 10.8414Z" fill="#3D0102"/>
<path d="M4.00537 8.51606C4.00537 8.5465 4.01146 8.56476 4.01146 8.56476C4.01146 8.52824 4.01146 8.50997 4.00537 8.51606Z" fill="#3D0102"/>
<path d="M0.462646 10.4701C0.462646 10.4701 0.462646 10.4944 0.462646 10.5066C0.462646 10.5675 0.462646 10.6101 0.462646 10.6709C0.462646 10.6101 0.468734 10.537 0.462646 10.4701Z" fill="#3D0102"/>
<path d="M0.413924 12.5945C0.413924 12.5945 0.413924 12.5763 0.407837 12.5763C0.407837 12.5763 0.407837 12.5884 0.413924 12.5945Z" fill="#3D0102"/>
<path d="M0.541789 5.95333C0.487004 5.96551 0.389608 5.96551 0.328735 5.96551C0.328735 5.97768 0.328735 5.98985 0.328735 6.00203L0.34091 5.97768L0.401782 6.00203L0.535702 5.95333H0.541789Z" fill="#3D0102"/>
<path d="M4.14538 9.62394L4.15755 9.49611C4.17581 9.65438 4.16973 9.76395 4.18799 9.64221C4.14538 9.62394 4.18799 9.13696 4.14538 9.1187V9.03348C4.14538 9.03348 4.15755 9.06392 4.15755 9.08827C4.17581 8.92391 4.12711 8.96652 4.1332 8.75347C4.1332 8.68042 4.13929 8.62563 4.14538 8.68042L4.1332 8.51606C4.1332 8.46737 4.13929 8.47954 4.13929 8.52824V8.27257C4.13929 8.22388 4.12103 8.15083 4.12103 8.11431C4.12103 8.04735 4.12103 8.14474 4.1332 8.13257L4.12103 7.99256C4.1332 7.93778 4.13929 8.05343 4.13929 8.15083C4.1819 8.023 4.12711 8.03517 4.15146 7.75516V7.88908C4.1819 7.80386 4.16973 7.70037 4.1819 7.54819C4.17581 7.58471 4.14538 7.84647 4.13929 7.69429C4.13929 7.65168 4.13929 7.59689 4.13929 7.51167C4.15146 7.51167 4.15146 7.43253 4.15146 7.32905H4.16973C4.16973 7.22557 4.15755 7.23774 4.14538 7.17078C4.14538 7.04904 4.16364 7.02469 4.17581 6.99425C4.17581 6.79946 4.15146 7.12817 4.15146 6.89686C4.15755 6.73859 4.15146 6.62293 4.13929 6.42814C4.14538 6.31857 4.15146 6.4464 4.15755 6.40988L4.14538 6.31248C4.14538 6.31248 4.14538 6.29422 4.15146 6.30031C4.15146 6.21508 4.1332 6.29422 4.12711 6.1603C4.12103 6.14812 4.12711 6.08116 4.12711 5.97768C3.9932 5.97159 3.87754 5.95942 3.78623 5.97768C3.74362 5.97768 3.80449 5.96551 3.79232 5.95942C3.56709 5.97768 3.59752 5.97159 3.41491 5.98986L3.25664 5.97768C3.3723 5.98986 3.2262 6.00812 3.09837 6.02029C3.14098 6.02638 3.1775 6.03247 3.19577 6.03855L2.9888 6.05073C2.9888 6.05073 2.9888 6.03855 3.01924 6.03247H2.98271C2.90966 6.03247 2.94619 6.02029 3.00097 6.00812L3.07402 6.02029C3.12272 6.00812 3.17142 5.99594 3.15924 5.98377C3.13489 5.98377 3.11054 5.98377 3.09228 5.98377C3.10446 5.98377 3.11663 5.98377 3.11054 5.97768C3.10446 5.97768 3.08011 5.97768 3.04967 5.98377L3.00097 5.96551H2.9888H2.72096C2.52617 5.98377 2.36181 6.02029 2.05136 6.02638C2.12441 6.00812 2.06962 6.00203 2.06962 5.98377C2.15485 6.00203 2.30703 5.97768 2.4653 5.98377C2.38007 5.98377 2.39834 5.97159 2.42268 5.97159L2.14267 5.98986C2.14267 5.98986 2.0818 5.97768 2.00875 5.97159C2.06354 6.00203 1.7957 5.98986 1.68004 6.00203C1.67395 5.98986 1.6983 5.98377 1.83831 5.98377C1.68613 5.95942 1.63743 6.02029 1.48525 6.00203C1.52177 6.00203 1.54003 6.00203 1.55221 6.00203C1.47307 6.00812 1.27828 6.00203 1.32089 5.99594H1.35742C1.13219 5.99594 0.663469 5.99594 0.633033 6.02029C0.633033 6.02029 0.663469 5.98986 0.675644 5.98377L0.389543 6.04464L0.413892 6.16639C0.413892 6.16639 0.383456 6.17247 0.371281 6.17856C0.353019 6.17856 0.340845 6.19073 0.334758 6.03855C0.334758 6.12986 0.32867 6.209 0.334758 6.31248C0.334758 6.27596 0.365194 6.22117 0.365194 6.26987C0.340845 6.40988 0.353019 6.36726 0.334758 6.53771C0.334758 6.48292 0.371281 6.5438 0.371281 6.62902C0.371281 6.61684 0.340845 6.6351 0.334758 6.60467L0.365194 6.82381C0.365194 6.76902 0.334758 6.81163 0.32867 6.86033C0.334758 6.83598 0.32867 7.04904 0.32867 7.10991V7.0186C0.32867 7.26209 0.383456 7.26209 0.383456 7.50558C0.377368 7.47514 0.340845 7.43253 0.334758 7.55428C0.353019 7.60906 0.413892 7.80386 0.426066 8.023L0.413892 8.06561L0.426066 8.22996C0.401717 8.12648 0.346932 7.83429 0.32867 7.67602C0.322583 7.76733 0.316496 7.70037 0.316496 7.84038C0.310409 7.88908 0.304321 7.76733 0.304321 7.72472V8.04735C0.304321 8.04735 0.316496 8.29084 0.334758 8.27866L0.316496 7.93169C0.316496 7.93169 0.371281 8.13257 0.371281 8.36388C0.365194 8.42476 0.334758 8.32127 0.32867 8.32736C0.334758 8.3578 0.340845 8.54041 0.334758 8.56476L0.322583 8.46737C0.316496 8.5952 0.346932 8.67433 0.32867 8.82651C0.32867 8.8813 0.304321 8.98478 0.316496 8.99087C0.340845 8.90565 0.407805 8.88739 0.426066 8.94826C0.426066 8.96652 0.401717 9.22219 0.39563 9.28306C0.377368 9.36828 0.353019 9.15523 0.340845 9.22827C0.340845 9.22827 0.353019 9.27697 0.353019 9.30132C0.353019 9.3561 0.334758 9.27697 0.340845 9.39872C0.359107 9.41698 0.340845 9.64221 0.359107 9.4535C0.359107 9.56916 0.359107 9.57525 0.359107 9.71525C0.371281 9.67264 0.401717 9.837 0.407805 9.95874C0.407805 9.95266 0.39563 9.977 0.39563 9.98918C0.39563 10.2144 0.389543 10.3727 0.383456 10.5857C0.383456 10.604 0.371281 10.7136 0.365194 10.671C0.365194 10.7014 0.377368 10.7318 0.377368 10.8049C0.359107 10.9388 0.377368 10.6527 0.353019 10.7501C0.365194 10.7562 0.371281 10.9266 0.377368 11.0301C0.39563 10.9997 0.377368 10.8049 0.377368 10.7014C0.401717 10.7014 0.426066 10.8718 0.438241 11.1092C0.444328 11.2979 0.419979 11.1884 0.426066 11.2249C0.426066 11.5719 0.468677 11.5232 0.450415 11.8154C0.432154 11.931 0.419979 11.8154 0.407805 11.8458C0.407805 11.6936 0.419979 11.6145 0.419979 11.511V11.6388C0.407805 11.5901 0.401717 11.4866 0.407805 11.4319C0.39563 11.5293 0.407805 12.0223 0.389543 12.2902C0.389543 12.3389 0.401717 12.418 0.407805 12.3815V12.2962C0.419979 12.2171 0.426066 12.4545 0.426066 12.351C0.432154 12.4667 0.450415 12.5945 0.444328 12.7528L0.426066 12.7832C0.426066 12.7832 0.438241 12.6797 0.426066 12.631C0.432154 12.698 0.401717 12.8806 0.426066 12.9537L0.438241 12.838C0.444328 12.9537 0.468677 13.0937 0.46259 13.2398C0.480852 13.1728 0.46259 13.2093 0.480852 13.1059C0.456503 13.1911 0.480852 12.7406 0.456503 12.8806C0.480852 12.7771 0.468677 12.698 0.486939 12.5641C0.486939 12.5641 0.474764 12.6128 0.480852 12.491C0.480852 12.485 0.480852 12.4728 0.480852 12.4667C0.480852 12.4971 0.480852 12.5154 0.474764 12.5276C0.46259 12.4667 0.46259 12.278 0.456503 12.211C0.456503 12.138 0.46259 12.2415 0.468677 12.2049L0.456503 12.1075C0.456503 12.1075 0.480852 11.9188 0.486939 12.0832V11.931C0.493026 11.8397 0.499113 11.718 0.486939 11.6449C0.486939 11.5719 0.474764 11.4623 0.486939 11.5293V11.2919C0.486939 11.0605 0.46259 10.811 0.486939 10.5431C0.486939 10.464 0.480852 10.3849 0.486939 10.2509L0.499113 10.2266C0.499113 10.1231 0.511288 9.92222 0.499113 9.87961C0.52955 9.77004 0.505201 9.39263 0.511288 9.21001H0.499113C0.499113 9.09435 0.499113 8.98478 0.486939 8.81434L0.474764 8.82651C0.46259 8.69868 0.486939 8.49172 0.480852 8.28475C0.480852 8.29692 0.480852 8.35171 0.480852 8.38823C0.511288 8.13865 0.456503 7.86473 0.480852 7.64559C0.480852 7.5908 0.480852 7.54819 0.480852 7.51167C0.480852 7.51167 0.480852 7.51776 0.480852 7.52384C0.480852 7.51776 0.480852 7.51167 0.480852 7.49949C0.480852 7.47514 0.480852 7.44471 0.486939 7.42036C0.486939 7.4508 0.486939 7.47514 0.480852 7.48732C0.480852 7.4508 0.480852 7.39601 0.480852 7.31688L0.493026 7.29253C0.493026 7.29253 0.493026 7.28644 0.493026 7.28035C0.493026 7.21948 0.486939 7.23165 0.474764 7.26209C0.474764 7.23774 0.474764 7.20731 0.468677 7.17687C0.493026 7.12817 0.46259 7.00643 0.486939 6.93947C0.474764 6.89686 0.480852 6.61684 0.450415 6.58032C0.450415 6.58032 0.450415 6.56206 0.450415 6.59249C0.450415 6.51945 0.450415 6.45249 0.450415 6.38553L0.468677 6.35509L0.444328 6.19682C0.456503 6.1116 0.46259 6.11769 0.474764 6.16639C0.474764 6.14204 0.468677 6.12378 0.468677 6.1116C0.566073 6.10551 0.523462 6.1116 0.699993 6.09334L0.687818 6.10551C0.754778 6.10551 0.864348 6.08725 0.906959 6.09943C1.05914 6.12378 1.67395 6.09943 2.06962 6.12378C1.99049 6.08725 2.25224 6.14204 2.2705 6.1116C2.29485 6.11769 2.34964 6.12377 2.28268 6.12986C2.48356 6.12377 2.58704 6.14204 2.72705 6.11769C2.7514 6.12378 2.68444 6.12986 2.7027 6.13595C2.72096 6.13595 2.76966 6.12986 2.78792 6.13595C2.80618 6.13595 2.75748 6.14204 2.72705 6.14812C2.93401 6.14812 2.95228 6.12378 2.97054 6.09943C3.07402 6.1116 3.12881 6.1116 3.20185 6.09943C3.23838 6.10551 3.29925 6.11769 3.17142 6.11769C3.24446 6.11769 3.6097 6.12986 3.62187 6.1116C3.64622 6.1116 3.72536 6.1116 3.74362 6.1116C3.88971 6.1116 3.90189 6.1116 4.04798 6.1116H4.01754C4.01754 6.1116 4.05407 6.09943 4.07842 6.09943C4.07842 6.14204 4.07842 6.19682 4.07842 6.26378C4.06015 6.55597 4.0845 6.38553 4.06624 6.67771L4.07842 6.65945C4.07842 6.65945 4.06016 6.91512 4.07233 7.08556V7.02469C4.09059 7.116 4.04189 7.28035 4.03581 7.37166C4.03581 7.38992 4.03581 7.34123 4.02972 7.31079C4.01146 7.55428 4.04798 7.34122 4.05407 7.52384C4.04189 7.55428 4.02972 7.48123 4.02972 7.60298C4.02363 7.66385 4.06015 7.95604 4.04189 8.12039C4.04798 8.08387 4.06015 8.04735 4.06015 8.13257C4.06015 8.2604 4.02972 8.47954 4.06015 8.5952C4.06015 8.61346 4.06015 8.61955 4.06015 8.61955C4.06624 8.71694 4.07233 8.93608 4.0845 8.99696C4.03581 9.08827 4.10885 9.60568 4.06624 9.60568V9.91004V9.90396C4.06624 10.0987 4.07233 10.1657 4.0845 10.2327C4.0845 10.2753 4.07842 10.2448 4.07233 10.2388C4.06624 10.5188 4.06624 10.5492 4.0845 10.7866L4.07233 10.811C4.07842 10.8779 4.04798 11.2188 4.07233 11.4927C4.07233 11.4927 4.07233 11.4866 4.06624 11.4623C4.0845 11.7727 4.02363 12.2049 4.07842 12.3206L4.09059 12.5276C4.09059 12.2597 4.11494 12.5641 4.12103 12.4606C4.12103 12.5641 4.10277 12.7284 4.10277 12.6006V12.5823C4.07842 12.5336 4.09668 12.9111 4.07842 12.905C4.07842 13.4163 4.06624 13.9459 4.06624 14.4268L4.09059 14.372V14.5424C4.0845 14.5851 4.07233 14.6033 4.07233 14.4816C4.06016 14.5485 4.0845 14.6885 4.0845 14.6885C4.07842 14.9259 4.06015 14.5972 4.06015 14.6703V14.7677V14.7433C4.06624 14.8225 4.07842 14.8285 4.07842 14.9746C4.07842 15.0659 4.06624 15.0233 4.06624 15.0599C4.06624 15.0599 4.06624 15.072 4.06624 15.1146V15.3277L4.07842 15.2425C4.0845 15.3399 4.07842 15.4434 4.09668 15.346C4.06624 15.4921 4.0845 16.1495 4.07842 16.2347C4.09059 16.3686 4.09059 16.5025 4.09059 16.6608C4.09059 16.6182 4.11494 16.5938 4.10885 16.7339C4.07233 16.6852 4.09059 16.9895 4.06624 17.1052C4.0845 17.0017 4.06624 17.5069 4.09668 17.3487C4.09668 17.4643 4.0845 17.3548 4.07233 17.4461C4.07233 17.5556 4.07233 17.6226 4.07233 17.7017C4.07233 17.7687 4.07233 17.8478 4.07233 17.927C4.01754 17.927 3.96885 17.927 3.92015 17.927C3.8471 17.927 3.78014 17.927 3.70709 17.927C3.70709 17.927 3.76188 17.9391 3.68275 17.9452L3.50013 17.9209C3.43317 17.9209 3.43926 17.9513 3.31142 17.933C3.32968 17.933 3.35403 17.9452 3.31142 17.9452C2.63574 17.9209 1.92962 17.9635 1.24176 17.9209C1.33307 17.933 1.27219 17.933 1.19915 17.933C1.24785 17.933 1.19915 17.9452 1.20523 17.9513L0.919134 17.933C0.864348 17.9513 0.608684 17.933 0.578248 17.9513H0.669556C0.547811 17.9696 0.839999 17.9939 0.821738 18.0243C0.955657 18 1.18089 18.0609 1.40003 18.0243C1.44872 18.0243 1.35742 18.0304 1.38176 18.0426C1.43655 18.0304 1.50351 18.0304 1.63134 18.0365H1.61917C1.97223 18.0365 2.12441 18.0487 2.52617 18.0548L2.49573 18.0426C2.58095 18.0426 2.59921 18.0487 2.64183 18.0548C2.73922 18.0365 2.39834 18.0548 2.48964 18.0304C2.6053 18.0609 3.09228 18.0304 3.17142 18.0609C3.30534 18.0609 3.13489 18.0426 3.26273 18.0426H3.29925H3.32968C3.41491 18.0426 3.45752 18.0548 3.4636 18.0609C3.43926 18.0609 3.40273 18.0609 3.38447 18.0609C3.49404 18.073 3.70101 18.0609 3.73753 18.0609H3.6097C3.80449 18.0548 3.9932 18.0548 4.18799 18.0548C4.18799 17.927 4.18799 17.793 4.18799 17.6652C4.18799 17.5739 4.18799 17.4765 4.1819 17.3608V17.3852C4.16364 17.1173 4.1819 17.1721 4.1819 16.8799V16.8921C4.1819 16.8312 4.17581 16.7582 4.17581 16.6791C4.1819 16.7521 4.18799 16.5391 4.20016 16.6365C4.18799 16.3504 4.18799 16.4965 4.16364 16.3017L4.17581 16.259C4.16364 16.1921 4.16364 16.186 4.15755 16.046C4.16973 16.1677 4.17581 15.9547 4.18799 16.0886C4.21234 15.7842 4.16364 15.6321 4.20016 15.4921C4.16973 15.352 4.1819 15.7538 4.17581 15.6808C4.16364 15.7477 4.15146 15.5651 4.15755 15.4677C4.15755 15.3703 4.19407 15.3033 4.19407 15.0538C4.19407 15.072 4.19407 15.0842 4.19407 15.1025C4.20016 15.0112 4.1819 14.9199 4.19407 14.8103C4.17581 14.7494 4.19407 14.6642 4.16973 14.6459V14.8712C4.16973 14.7433 4.13929 14.6216 4.15755 14.4146C4.15755 14.4329 4.16973 14.4937 4.16973 14.5364C4.17581 14.4755 4.16973 14.4207 4.16973 14.3537C4.19407 14.372 4.16973 14.6277 4.19407 14.7616C4.20625 14.6946 4.17581 14.5059 4.20016 14.5729C4.16973 14.4755 4.20016 14.3294 4.1819 14.165L4.19407 14.1772C4.19407 14.1772 4.18799 14.0981 4.18799 14.0494L4.20625 14.1346C4.18799 14.0007 4.21842 13.8728 4.20625 13.745C4.20625 14.0129 4.18799 13.8059 4.1819 13.9215C4.16364 13.5867 4.21842 13.7328 4.21234 13.3554C4.21234 13.4041 4.20625 13.5441 4.20016 13.465C4.20016 13.392 4.20625 13.3006 4.21842 13.258C4.21842 13.0085 4.20625 13.2946 4.19407 13.1911C4.21234 13.1059 4.18799 13.0693 4.1819 12.9598H4.19407C4.20016 12.6797 4.16364 12.8867 4.17581 12.631L4.19407 12.7406V12.6067L4.20625 12.631C4.19407 12.485 4.20016 12.4423 4.20625 12.3023C4.19407 12.3328 4.1819 12.2841 4.1819 12.1562C4.18799 12.071 4.19407 12.2049 4.19407 12.0284C4.20016 12.071 4.21234 12.1136 4.20016 12.1867L4.21234 12.2354C4.22451 12.1441 4.21234 12.0041 4.21234 11.9432C4.21234 11.9614 4.21234 11.9797 4.21234 12.0101L4.19407 11.7545C4.19407 11.7119 4.20625 11.7484 4.20625 11.7788C4.20625 11.7423 4.20016 11.6693 4.19407 11.6145C4.20625 11.6327 4.21842 11.6266 4.22451 11.7362L4.21234 11.4927C4.21234 11.4927 4.22451 11.3649 4.2306 11.4014C4.23669 11.2675 4.20625 11.0666 4.21842 10.8901C4.21842 10.8779 4.21842 10.8597 4.21842 10.8231C4.21842 10.6527 4.23669 10.5066 4.21842 10.3057L4.23669 10.1901C4.23669 10.0318 4.21234 10.3422 4.20016 10.0805C4.19407 9.89787 4.21842 10.0135 4.22451 9.94657C4.21234 9.85526 4.19407 9.69699 4.21234 9.52655C4.21234 9.61786 4.21234 9.62394 4.21234 9.67873L4.14538 9.62394ZM4.1332 7.6882C4.1332 7.72472 4.14538 7.79777 4.1332 7.8282C4.11494 7.78559 4.12711 7.75516 4.1332 7.6882ZM2.80009 5.98986C2.80009 5.98986 2.87314 5.98986 2.92184 5.98986C2.88532 5.98986 2.84879 5.98986 2.80009 5.98986ZM0.450415 11.7849C0.450415 11.724 0.450415 11.6997 0.450415 11.7849ZM0.444328 11.9554C0.444328 11.9554 0.444328 11.9736 0.444328 11.9614C0.444328 11.9493 0.444328 11.9127 0.444328 11.8641C0.444328 11.8762 0.438241 11.9006 0.444328 11.9493V11.9554ZM4.01146 15.0233V14.9868C4.01754 15.0659 4.01146 15.0416 4.01146 15.0233Z" fill="#3D0102"/>
<path d="M3.13489 5.9716C3.13489 5.9716 3.14706 5.9716 3.15315 5.97768C3.16532 5.97768 3.16532 5.97768 3.13489 5.9716Z" fill="#3D0102"/>
<path d="M0.322632 9.27088C0.322632 9.23435 0.322632 9.21609 0.328719 9.20392C0.328719 9.20392 0.322632 9.21609 0.322632 9.27088Z" fill="#3D0102"/>
<path d="M0.468734 12.8745V12.765C0.468734 12.8197 0.468734 12.838 0.462646 12.8624C0.462646 12.8624 0.468734 12.838 0.468734 12.8745Z" fill="#3D0102"/>
<path d="M0.383423 13.8424C0.383423 13.8424 0.383423 13.8607 0.383423 13.8911H0.38951C0.38951 13.8181 0.38951 13.7694 0.383423 13.8424Z" fill="#3D0102"/>
<path d="M0.419942 12.978C0.419942 12.978 0.413855 13.0572 0.419942 13.1363V13.1241C0.419942 13.1241 0.432116 13.0632 0.419942 12.9841V12.978Z" fill="#3D0102"/>
<path d="M0.41394 13.1545C0.41394 13.1545 0.41394 13.2032 0.41394 13.2276C0.420028 13.2337 0.41394 13.1972 0.41394 13.1545Z" fill="#3D0102"/>
<path d="M0.450399 12.1745C0.450399 12.211 0.462574 12.1989 0.462574 12.2171C0.474748 12.2597 0.444312 11.9736 0.450399 12.1745Z" fill="#3D0102"/>
<path d="M0.383423 13.0389L0.395597 13.0145L0.383423 12.9719V13.0389Z" fill="#3D0102"/>
<path d="M0.377319 12.8684L0.383407 12.8319V12.7467L0.377319 12.8684Z" fill="#3D0102"/>
<path d="M0.395597 11.091V10.957C0.395597 10.957 0.383423 10.9814 0.383423 11.0301C0.383423 11.0605 0.383423 11.1153 0.395597 11.091Z" fill="#3D0102"/>
<path d="M0.359115 11.4988C0.359115 11.4623 0.365202 11.4623 0.371289 11.4379H0.353027L0.359115 11.4988Z" fill="#3D0102"/>
<path d="M0.352995 11.1031C0.352995 11.1031 0.34082 10.9084 0.34082 11.0788C0.34082 11.091 0.352995 11.231 0.352995 11.1031Z" fill="#3D0102"/>
<path d="M0.377319 9.05783V9.09435L0.407756 9.08827L0.377319 9.05783Z" fill="#3D0102"/>
<path d="M0.30433 7.256C0.298243 7.41427 0.322592 7.29252 0.316505 7.43862C0.322592 7.47514 0.322592 7.31687 0.328679 7.35948C0.322592 7.26209 0.328679 7.21339 0.30433 7.256Z" fill="#3D0102"/>
<path d="M0.669523 17.86L0.56604 17.8539L0.633 17.8661L0.669523 17.86Z" fill="#3D0102"/>
<path d="M0.468644 17.8843L0.444295 17.8661L0.383423 17.8843C0.383423 17.8843 0.450383 17.8843 0.468644 17.8843Z" fill="#3D0102"/>
<path d="M4.16968 7.4021C4.16968 7.4021 4.16968 7.43254 4.16968 7.48123L4.18185 7.4021H4.16968Z" fill="#3D0102"/>
<path d="M4.15754 8.80217V8.77782L4.13928 8.82651L4.15754 8.80217Z" fill="#3D0102"/>
<path d="M4.18194 9.98309C4.18194 9.93439 4.18194 9.87961 4.18194 9.83091C4.18194 9.93439 4.16368 9.99527 4.18194 9.98309Z" fill="#3D0102"/>
<path d="M2.20963 4.46196C3.41491 4.46196 4.38887 3.47582 4.38887 2.26446C4.38887 1.0531 3.41491 0.0608749 2.20963 0.0608749C1.00436 0.0608749 0.0303955 1.04701 0.0303955 2.26446C0.0303955 3.48191 1.00436 4.46196 2.20963 4.46196Z" fill="#01193D"/>
<path d="M2.19141 4.38891C2.19141 4.38891 2.20358 4.37673 2.20967 4.37673C2.17923 4.37673 2.19749 4.39499 2.19141 4.38891Z" fill="#3D0102"/>
<path d="M1.86877 4.38891L1.87485 4.38282L1.82007 4.38891H1.86877Z" fill="#3D0102"/>
<path d="M1.56445 4.31586C1.56445 4.31586 1.67402 4.34021 1.72272 4.36455H1.72881H1.75925C1.69229 4.35238 1.60706 4.34021 1.56445 4.32194V4.31586Z" fill="#3D0102"/>
<path d="M1.43052 4.21847C1.43052 4.21847 1.39399 4.21847 1.46704 4.23673C1.46095 4.23673 1.45487 4.23673 1.4366 4.22456L1.43052 4.21847Z" fill="#3D0102"/>
<path d="M1.32094 4.17586L1.36355 4.18803C1.36355 4.18803 1.32702 4.16368 1.3392 4.16368C1.29659 4.15151 1.30267 4.1576 1.32094 4.17586Z" fill="#3D0102"/>
<path d="M1.34522 4.19411L1.30261 4.18194C1.30261 4.18194 1.30261 4.19411 1.32087 4.18803C1.32087 4.18803 1.32087 4.18803 1.34522 4.19411Z" fill="#3D0102"/>
<path d="M1.36963 4.20629C1.36963 4.20629 1.41833 4.23673 1.36963 4.22455C1.44876 4.2489 1.43659 4.23673 1.36963 4.20629Z" fill="#3D0102"/>
<path d="M1.54614 4.33412L1.57658 4.35238H1.60702C1.60702 4.35238 1.54614 4.32803 1.54614 4.33412Z" fill="#3D0102"/>
<path d="M1.10179 4.04193C1.10179 4.04193 1.10179 4.06019 1.10179 4.06628L1.13223 4.07845C1.13223 4.07845 1.0957 4.04802 1.0957 4.04193H1.10179Z" fill="#3D0102"/>
<path d="M1.10792 4.06628L1.06531 4.04802C1.10183 4.07237 1.10792 4.07237 1.10792 4.06628Z" fill="#3D0102"/>
<path d="M1.26619 4.18803L1.33923 4.21237L1.24792 4.18194L1.26619 4.18803Z" fill="#3D0102"/>
<path d="M0.95564 3.93845L0.986076 3.95063L0.937378 3.93237L0.95564 3.93845Z" fill="#3D0102"/>
<path d="M0.864445 3.87149C0.864445 3.87149 0.852271 3.84105 0.870532 3.85323C0.846183 3.83496 0.821834 3.82279 0.797485 3.81062C0.821834 3.82279 0.840096 3.84714 0.858358 3.87149H0.864445Z" fill="#3D0102"/>
<path d="M0.766968 3.78627C0.766968 3.78627 0.791317 3.79844 0.803491 3.80453C0.791317 3.79844 0.779142 3.79236 0.766968 3.78627Z" fill="#3D0102"/>
<path d="M0.998348 3.99932C0.998348 3.99932 0.998348 3.98715 0.973999 3.96889V3.98715L0.998348 3.99932Z" fill="#3D0102"/>
<path d="M0.986125 3.99324C0.986125 3.99324 0.961776 3.97497 0.955688 3.96889C0.955688 3.96889 0.967863 3.98106 0.986125 3.99324Z" fill="#3D0102"/>
<path d="M1.16265 4.12107C1.16265 4.12107 1.08351 4.09063 1.12612 4.12715C1.14439 4.12715 1.12612 4.10889 1.16265 4.12107Z" fill="#3D0102"/>
<path d="M1.0105 4.02976C1.0105 4.02976 1.03485 4.04802 1.05311 4.0602C1.05311 4.0602 1.05311 4.04802 1.06528 4.05411C1.04702 4.04802 1.02876 4.04194 1.01659 4.02976H1.0105Z" fill="#3D0102"/>
<path d="M0.992188 4.01759L1.01045 4.02976L0.998275 4.01759H0.992188Z" fill="#3D0102"/>
<path d="M0.821753 3.85323C0.821753 3.85323 0.78523 3.82888 0.766968 3.81062C0.797404 3.84105 0.815666 3.85931 0.82784 3.87149C0.82784 3.87149 0.846102 3.87149 0.82784 3.85323H0.821753Z" fill="#3D0102"/>
<path d="M0.584351 3.62191V3.628L0.590438 3.62191H0.584351Z" fill="#3D0102"/>
<path d="M0.821777 3.87758C0.821777 3.87758 0.846126 3.90193 0.858301 3.90802C0.840039 3.89584 0.827865 3.88367 0.821777 3.87758Z" fill="#3D0102"/>
<path d="M0.712158 3.74366C0.712158 3.74366 0.724333 3.76192 0.73042 3.7741C0.73042 3.76192 0.712158 3.74366 0.712158 3.74366Z" fill="#3D0102"/>
<path d="M0.888729 3.9141C0.888729 3.9141 0.870467 3.90801 0.86438 3.90192C0.870467 3.90192 0.882642 3.9141 0.894816 3.92019L0.888729 3.9141Z" fill="#3D0102"/>
<path d="M0.474805 3.60365C0.474805 3.60365 0.523503 3.64017 0.553939 3.68278C0.590462 3.71322 0.602637 3.66452 0.590463 3.62191C0.590463 3.62191 0.578288 3.62191 0.547852 3.59147C0.547852 3.60974 0.608724 3.68278 0.572201 3.65843C0.523503 3.60974 0.541764 3.61582 0.52959 3.58539C0.52959 3.61582 0.46263 3.5306 0.456543 3.55495L0.499154 3.59756C0.499154 3.59756 0.480892 3.58539 0.486979 3.59756L0.474805 3.60365Z" fill="#3D0102"/>
<path d="M0.645223 3.69496L0.657398 3.70713C0.657398 3.70713 0.633049 3.67061 0.620874 3.64626C0.596525 3.628 0.584351 3.62191 0.584351 3.62191L0.65131 3.69496H0.645223Z" fill="#3D0102"/>
<path d="M0.724341 3.7741C0.724341 3.7741 0.669556 3.73757 0.675643 3.7741C0.718254 3.81671 0.712166 3.79845 0.742603 3.81671C0.669556 3.75584 0.766952 3.82888 0.724341 3.78018C0.74869 3.79845 0.754777 3.80453 0.766952 3.81062C0.760864 3.79845 0.74869 3.78627 0.736515 3.7741H0.730428C0.712166 3.75584 0.730428 3.7741 0.736515 3.7741C0.712166 3.75584 0.687817 3.73149 0.669556 3.70714C0.68173 3.7254 0.699992 3.74366 0.730428 3.7741H0.724341Z" fill="#3D0102"/>
<path d="M1.0348 4.09672C1.0348 4.09672 1.04698 4.09672 1.07133 4.10889C1.0835 4.12107 1.07133 4.10889 1.07133 4.11498C1.0835 4.11498 1.12002 4.13324 1.0835 4.1028H1.07741C1.04698 4.07846 1.01045 4.03584 1.01654 4.04193C1.01654 4.06019 1.02263 4.06628 1.04089 4.09063L1.0348 4.09672Z" fill="#3D0102"/>
<path d="M0.864445 3.94454C0.864445 3.94454 0.821834 3.91411 0.797485 3.89584L0.821834 3.93237C0.852271 3.95672 0.852271 3.94454 0.858358 3.94454H0.864445Z" fill="#3D0102"/>
<path d="M0.584408 3.60974H0.602669L0.560059 3.58539L0.584408 3.60974Z" fill="#3D0102"/>
<path d="M0.523527 3.53061L0.529614 3.52452L0.511353 3.50626L0.523527 3.53061Z" fill="#3D0102"/>
<path d="M0.41394 1.15049C0.41394 1.15049 0.474813 1.10179 0.462638 1.10179H0.444377C0.444377 1.10179 0.426115 1.13831 0.41394 1.15049Z" fill="#3D0102"/>
<path d="M1.77751 0.103485H1.76533L1.74707 0.121747C1.75924 0.121747 1.76533 0.109572 1.77751 0.103485Z" fill="#3D0102"/>
<path d="M4.07849 0.973956L4.10284 0.992218C4.07849 0.955695 4.08458 0.973956 4.07849 0.973956Z" fill="#3D0102"/>
<path d="M0.121724 2.56273C0.121724 2.56273 0.121724 2.50795 0.121724 2.48969C0.121724 2.52621 0.115637 2.55664 0.121724 2.56273Z" fill="#3D0102"/>
<path d="M3.23233 0.395673H3.25059C3.23842 0.395673 3.22624 0.389585 3.23233 0.395673Z" fill="#3D0102"/>
<path d="M0.109619 2.40446C0.109619 2.40446 0.109619 2.41664 0.109619 2.42273C0.109619 2.45316 0.109619 2.47142 0.115706 2.48969C0.115706 2.46534 0.115706 2.4349 0.115706 2.40446H0.109619Z" fill="#3D0102"/>
<path d="M2.48975 4.38282C2.48975 4.38282 2.51409 4.38282 2.53236 4.37673C2.52627 4.37673 2.5141 4.37673 2.48975 4.38282Z" fill="#3D0102"/>
<path d="M0.322616 3.20189C0.322616 3.20189 0.316528 3.18363 0.316528 3.17754C0.316528 3.18363 0.316528 3.19581 0.322616 3.20189Z" fill="#3D0102"/>
<path d="M0.328735 3.19581C0.328735 3.19581 0.328735 3.20798 0.334823 3.21407C0.334823 3.21407 0.334823 3.21407 0.328735 3.19581Z" fill="#3D0102"/>
<path d="M0.298218 3.14102C0.298218 3.14102 0.304305 3.15928 0.310392 3.17146C0.310392 3.16537 0.304305 3.15928 0.298218 3.14711V3.14102Z" fill="#3D0102"/>
<path d="M0.736548 0.547852C0.718286 0.584375 0.706112 0.59655 0.681763 0.608724H0.724373L0.730461 0.547852H0.736548Z" fill="#3D0102"/>
<path d="M3.70714 0.566114L3.67061 0.517416C3.73757 0.55394 3.76801 0.590463 3.73757 0.541765C3.70714 0.560027 3.55495 0.395671 3.52452 0.426108L3.50017 0.395671L3.51843 0.407846C3.46973 0.346973 3.45756 0.395671 3.37842 0.340886C3.35408 0.322624 3.33581 0.304363 3.35408 0.31045L3.28712 0.280014C3.28712 0.280014 3.27494 0.261752 3.2932 0.280014C3.26277 0.261752 3.22624 0.249577 3.18972 0.231316C3.18972 0.231316 3.13493 0.219141 3.11667 0.219141C3.09232 0.200879 3.12885 0.219141 3.12885 0.219141L3.06797 0.200879C3.06797 0.200879 3.09841 0.194792 3.14102 0.213054C3.1045 0.152181 3.09232 0.194792 2.97667 0.13392L3.03754 0.152181C3.0071 0.115658 2.96449 0.109571 2.90362 0.073047C2.91579 0.0852215 3.01928 0.152181 2.95232 0.140007C2.93405 0.127832 2.90971 0.121745 2.87318 0.115658C2.87318 0.103483 2.84275 0.097396 2.79405 0.0852215V0.0669598C2.75144 0.0608725 2.75144 0.0669598 2.721 0.0669598C2.66622 0.048698 2.66013 0.0365235 2.64795 0.0182618C2.56273 0 2.70274 0.048698 2.59926 0.0365235C2.52621 0.0182618 2.47751 0.0121745 2.3862 0.0182618C2.3375 0.0121745 2.39838 0.00608725 2.38012 0L2.33142 0.0121745V0.00608725C2.29489 0.00608725 2.33142 0.024349 2.27054 0.024349C2.25228 0.0426108 2.1488 -0.00608725 2.07575 0.024349C2.05749 0.024349 2.08184 0.0121745 2.07575 0.00608725C1.97227 0.024349 1.99053 0.0182618 1.9114 0.0547853H1.83835C1.89313 0.0547853 1.82618 0.0852215 1.77748 0.109571C1.79574 0.109571 1.814 0.115658 1.82618 0.115658C1.79574 0.121745 1.7653 0.13392 1.74095 0.140007C1.72878 0.140007 1.74095 0.13392 1.74704 0.121745H1.73487C1.70443 0.13392 1.7166 0.121745 1.73487 0.103483H1.77139C1.77139 0.103483 1.80791 0.0791343 1.80183 0.0669598C1.80183 0.0669598 1.78356 0.073047 1.77139 0.0791343C1.77139 0.0791343 1.77748 0.073047 1.77139 0.073047C1.77139 0.073047 1.75922 0.073047 1.74704 0.0852215L1.72269 0.073047V0.0852215L1.60095 0.103483C1.52181 0.146094 1.46094 0.200879 1.3392 0.261752C1.36354 0.231316 1.3392 0.237403 1.33311 0.219141C1.37572 0.219141 1.4305 0.17653 1.49746 0.152181C1.46094 0.164356 1.46703 0.152181 1.47311 0.146094L1.35746 0.206967C1.35746 0.206967 1.32702 0.206967 1.29658 0.213054C1.33311 0.231316 1.21745 0.273926 1.17484 0.304363C1.16875 0.298275 1.17484 0.280014 1.22962 0.255665C1.15658 0.267839 1.16266 0.322624 1.09571 0.340886C1.10788 0.334799 1.11397 0.328712 1.12005 0.322624C1.09571 0.346973 1.01657 0.389584 1.02875 0.371322H1.04092C0.949611 0.407846 0.785255 0.547853 0.791343 0.572202C0.791343 0.572202 0.779168 0.541765 0.785255 0.529591L0.706121 0.712208C0.706121 0.712208 0.6209 0.693947 0.675685 0.626987C0.657423 0.639161 0.626987 0.657423 0.602638 0.700034C0.614812 0.687859 0.651336 0.693947 0.639161 0.706121C0.578289 0.736557 0.602638 0.73047 0.535678 0.773081C0.55394 0.754819 0.560027 0.79743 0.535678 0.827866C0.535678 0.821779 0.511329 0.809604 0.517416 0.79743C0.505242 0.827866 0.493067 0.858302 0.480893 0.894826C0.493067 0.870477 0.462631 0.876564 0.438282 0.888739C0.450457 0.888739 0.389584 0.955698 0.371322 0.980047L0.401759 0.949611C0.328712 1.03483 0.37741 1.06527 0.322624 1.15658C0.322624 1.1444 0.304363 1.10788 0.273926 1.15658C0.273926 1.18701 0.292188 1.29658 0.261752 1.38181L0.24349 1.39398C0.24349 1.39398 0.231316 1.44268 0.225228 1.46703C0.213054 1.41833 0.225228 1.27832 0.237403 1.20528C0.213054 1.2418 0.225228 1.20528 0.194792 1.26615C0.17653 1.28441 0.194792 1.22962 0.206967 1.21136L0.140007 1.3392C0.140007 1.3392 0.115658 1.44877 0.13392 1.44877C0.146094 1.39398 0.164356 1.34528 0.17653 1.29658C0.200879 1.29658 0.182618 1.40007 0.152181 1.49746C0.13392 1.52181 0.127832 1.46703 0.121745 1.46703C0.121745 1.4792 0.103483 1.56442 0.0913088 1.57051V1.5279C0.0669598 1.58269 0.0913088 1.6253 0.0547853 1.68617C0.048698 1.71052 0.0121745 1.74704 0.024349 1.75313C0.0547853 1.72269 0.121745 1.72878 0.13392 1.75313C0.13392 1.75922 0.0913088 1.84444 0.073047 1.88705C0.048698 1.92357 0.0426108 1.82009 0.0182618 1.85052C0.0182618 1.85052 0.024349 1.87487 0.024349 1.88705C0.0182618 1.9114 0.0121745 1.87487 0.00608725 1.92966C0.024349 1.94183 -0.0121745 2.03923 0.0182618 1.96009C0.0182618 2.01488 0 2.01488 0 2.07575C0.0121745 2.05749 0.0426108 2.13662 0.0426108 2.18532C0.0426108 2.18532 0.0304363 2.19141 0.024349 2.1975C0.0121745 2.30098 0.0182618 2.36185 0.024349 2.45925C0.024349 2.47142 0.0182618 2.52012 0.00608725 2.49577C0.00608725 2.50795 0.0182618 2.52012 0.024349 2.55056C0.0182618 2.61143 0.0121745 2.4836 0 2.5323C0.0121745 2.5323 0.0304363 2.61143 0.0426108 2.65404C0.0608725 2.63578 0.0304363 2.55665 0.0182618 2.50795C0.0426108 2.50795 0.0791343 2.57491 0.103483 2.6723C0.121745 2.75144 0.097396 2.70883 0.103483 2.721C0.140007 2.86709 0.170443 2.83666 0.194792 2.9584C0.194792 3.01319 0.164356 2.97058 0.158269 2.98275C0.127832 2.92188 0.13392 2.88536 0.121745 2.83666V2.89144C0.121745 2.89144 0.103483 2.83057 0.103483 2.80622C0.097396 2.85492 0.170443 3.0558 0.213054 3.17146C0.225228 3.18972 0.249577 3.22016 0.24349 3.20189L0.225228 3.17146C0.225228 3.13493 0.273926 3.22624 0.255665 3.18363C0.286101 3.22624 0.316537 3.26885 0.346973 3.32973V3.34799C0.346973 3.34799 0.322624 3.30538 0.31045 3.28712C0.328712 3.31146 0.346973 3.3906 0.383497 3.40886L0.371322 3.36016C0.407846 3.39669 0.450457 3.4393 0.480893 3.49408C0.480893 3.46365 0.468718 3.48191 0.462631 3.4393C0.462631 3.48799 0.383497 3.30538 0.389584 3.37234C0.389584 3.32364 0.353061 3.30538 0.346973 3.23842C0.346973 3.23842 0.346973 3.26277 0.328712 3.21407L0.316537 3.20798C0.316537 3.22016 0.316537 3.23233 0.316537 3.23842C0.292188 3.22016 0.255665 3.14711 0.237403 3.12276C0.225228 3.09232 0.249577 3.12885 0.249577 3.11667C0.237403 3.1045 0.231316 3.09232 0.225228 3.08015C0.237403 3.07406 0.219141 2.99493 0.249577 3.06189L0.225228 3.00101C0.225228 2.96449 0.200879 2.91579 0.188705 2.88536C0.188705 2.85492 0.158269 2.81231 0.170443 2.83666L0.140007 2.73926C0.121745 2.64187 0.0791343 2.53838 0.097396 2.42273C0.097396 2.39229 0.0852215 2.35577 0.0852215 2.30098L0.097396 2.28881C0.0913088 2.2462 0.115658 2.16097 0.097396 2.14271C0.127832 2.1001 0.121745 1.93575 0.140007 1.8627H0.127832C0.13392 1.82009 0.140007 1.77748 0.158269 1.69226H0.146094C0.146094 1.63138 0.200879 1.55834 0.225228 1.47311C0.225228 1.4792 0.219141 1.50355 0.213054 1.51573C0.273926 1.42442 0.280014 1.30267 0.346973 1.22354C0.353061 1.19919 0.365235 1.18701 0.37741 1.17484L0.401759 1.1444C0.389584 1.15049 0.383497 1.16266 0.383497 1.16266C0.383497 1.15049 0.395671 1.13223 0.42002 1.09571H0.438282C0.438282 1.09571 0.438282 1.09571 0.438282 1.08962C0.456544 1.07136 0.438282 1.06527 0.426108 1.07136C0.426108 1.05918 0.432195 1.05309 0.438282 1.03483C0.468718 1.03483 0.474806 0.97396 0.511329 0.961786C0.511329 0.937437 0.590463 0.846128 0.584376 0.821779C0.584376 0.821779 0.596551 0.821779 0.584376 0.827866C0.608725 0.809604 0.626987 0.785255 0.645249 0.760906H0.669598C0.669598 0.760906 0.687859 0.718296 0.700034 0.700034C0.736557 0.681772 0.754819 0.675685 0.736557 0.712208C0.791343 0.633074 0.791343 0.651336 0.840041 0.578289V0.590463C0.840041 0.590463 0.894826 0.529591 0.919175 0.529591C0.980047 0.499155 1.1931 0.340886 1.35746 0.292188C1.31485 0.273926 1.43659 0.273926 1.4305 0.249577C1.44268 0.249577 1.46703 0.249577 1.44268 0.267839C1.52181 0.231316 1.56442 0.231316 1.61921 0.200879C1.63138 0.200879 1.60703 0.219141 1.61921 0.219141C1.6253 0.219141 1.64356 0.206967 1.65573 0.206967C1.66791 0.206967 1.64356 0.219141 1.63138 0.225228C1.7166 0.200879 1.7166 0.17653 1.7166 0.152181C1.7653 0.152181 1.78356 0.146094 1.814 0.127832C1.83226 0.127832 1.85661 0.13392 1.80183 0.146094C1.83226 0.146094 1.99053 0.127832 1.99053 0.109571C2.00271 0.109571 2.03314 0.109571 2.04532 0.109571C2.11228 0.109571 2.11836 0.109571 2.19141 0.103483H2.17315C2.17315 0.103483 2.22793 0.097396 2.28881 0.097396C2.41664 0.121745 2.34359 0.0913088 2.46534 0.121745V0.109571C2.46534 0.109571 2.56882 0.146094 2.64187 0.146094L2.61752 0.13392C2.66013 0.13392 2.71491 0.200879 2.75144 0.213054C2.75752 0.213054 2.73926 0.213054 2.72709 0.213054C2.82448 0.255665 2.74535 0.200879 2.8184 0.213054C2.83057 0.225228 2.79405 0.231316 2.84275 0.249577C2.86101 0.267839 2.99493 0.267839 3.0558 0.316537C3.04363 0.304363 3.03145 0.286101 3.06797 0.298275C3.11667 0.322624 3.18972 0.389584 3.2445 0.389584V0.401759C3.28103 0.42002 3.36625 0.462631 3.39669 0.468718C3.39669 0.529591 3.62191 0.608725 3.59148 0.645249L3.68887 0.73047C3.74366 0.791343 3.76801 0.809604 3.79844 0.821779C3.81062 0.840041 3.79844 0.827866 3.79844 0.827866C3.87758 0.925262 3.87758 0.937437 3.95671 1.0044V1.02266C3.95671 1.02266 4.02976 1.18093 4.09672 1.27832C4.09672 1.27832 4.09672 1.27832 4.08455 1.27224C4.16368 1.38181 4.17585 1.5766 4.23673 1.60703C4.25499 1.63138 4.26108 1.66182 4.27325 1.68617C4.2489 1.57051 4.2976 1.69834 4.2976 1.64964C4.30977 1.69226 4.30977 1.77139 4.2976 1.7166V1.70443C4.26716 1.69226 4.32804 1.84444 4.2976 1.84444C4.34021 2.06358 4.32804 2.28881 4.30977 2.49577L4.33412 2.47142L4.32195 2.54447C4.32195 2.54447 4.30369 2.56882 4.30977 2.51403C4.29151 2.53838 4.30977 2.59926 4.30977 2.60534C4.28542 2.70274 4.29151 2.56273 4.28542 2.59317V2.63578V2.62969C4.28542 2.66622 4.30369 2.6723 4.28542 2.73318C4.27325 2.7697 4.26716 2.75144 4.26108 2.76361C4.26108 2.76361 4.26108 2.76361 4.25499 2.78796L4.23064 2.87927L4.25499 2.84883C4.25499 2.89144 4.23064 2.93405 4.26108 2.89753C4.21846 2.95232 4.12716 3.22016 4.09672 3.2445C4.08455 3.30538 4.04802 3.34799 4.0115 3.40886C4.02367 3.39669 4.04802 3.39669 4.0115 3.44538C3.99324 3.40886 3.93236 3.53061 3.88367 3.54887C3.92628 3.52452 3.78018 3.68887 3.84714 3.65235C3.81062 3.68887 3.83497 3.64626 3.79844 3.67061C3.73148 3.7741 3.60974 3.85932 3.49408 3.95063C3.49408 3.95063 3.51843 3.95063 3.49408 3.97497L3.41495 3.99932C3.41495 3.99932 3.41495 4.04193 3.35408 4.05411C3.36016 4.05411 3.37842 4.05411 3.36016 4.06628C3.1045 4.20629 2.83057 4.36456 2.52621 4.36456C2.56882 4.36456 2.53838 4.37065 2.51403 4.37673C2.5323 4.37673 2.51403 4.38891 2.52012 4.39499H2.39229C2.39229 4.39499 2.25837 4.40108 2.2462 4.41934H2.28272C2.22793 4.43761 2.36185 4.45587 2.35577 4.4863C2.41664 4.46195 2.52012 4.50457 2.61143 4.45587C2.63578 4.45587 2.59317 4.46804 2.61143 4.47413C2.63578 4.46195 2.66013 4.44978 2.721 4.43761C2.87318 4.40108 2.94623 4.38891 3.11059 4.32195H3.09232C3.12885 4.2976 3.13493 4.2976 3.1532 4.2976C3.18363 4.26108 3.0558 4.3463 3.08015 4.30369C3.14102 4.30977 3.32364 4.18194 3.36625 4.18803C3.41495 4.15759 3.3419 4.18803 3.39669 4.15151H3.41495L3.42103 4.13324C3.45756 4.11498 3.47582 4.10889 3.48191 4.11498C3.47582 4.11498 3.46365 4.13324 3.45147 4.13933C3.50017 4.11498 3.56713 4.04802 3.5793 4.04193L3.53061 4.07237C3.65844 3.97497 3.80453 3.83497 3.89584 3.70714H3.88367C3.95063 3.60974 3.95063 3.64018 4.02367 3.53061C4.02367 3.53061 4.04802 3.47582 4.06628 3.45147C4.05411 3.48191 4.10889 3.40277 4.09672 3.45147C4.1515 3.33581 4.12107 3.3906 4.13933 3.30538L4.15759 3.2932C4.15759 3.26277 4.15759 3.25668 4.18194 3.19581C4.16977 3.25059 4.21238 3.16537 4.2002 3.22624C4.28542 3.11059 4.25499 3.02536 4.30977 2.98275C4.30369 2.91579 4.25499 3.08624 4.26108 3.0558C4.24281 3.08015 4.26108 3.00101 4.27325 2.9584C4.29151 2.91579 4.32804 2.89753 4.35847 2.78796C4.35847 2.78796 4.35847 2.80622 4.35847 2.81231C4.37673 2.77579 4.37065 2.73318 4.38891 2.68448C4.37673 2.65404 4.40108 2.61752 4.37673 2.60534L4.36456 2.70883C4.36456 2.64795 4.3463 2.59317 4.37673 2.50186C4.37673 2.50795 4.37673 2.53838 4.37673 2.55665C4.38891 2.5323 4.37673 2.50186 4.38891 2.47751C4.41326 2.48969 4.37673 2.59926 4.38891 2.66622C4.40108 2.63578 4.38891 2.55056 4.40717 2.58099C4.38282 2.5323 4.42543 2.47142 4.40717 2.39229H4.41934C4.41934 2.39229 4.41326 2.36185 4.41934 2.3375L4.43761 2.38012C4.42543 2.31924 4.46195 2.26446 4.44369 2.20358C4.44369 2.32533 4.43152 2.23402 4.41934 2.28272C4.395 2.13054 4.45587 2.1975 4.43761 2.02705C4.43761 2.0514 4.43761 2.11228 4.42543 2.07575C4.42543 2.04532 4.42543 2.00271 4.42543 1.97836C4.40717 1.86879 4.41326 1.99662 4.40108 1.95401C4.41326 1.9114 4.38891 1.89922 4.37065 1.85052H4.38282C4.37065 1.72269 4.3463 1.82009 4.33412 1.70443L4.36456 1.74704L4.3463 1.69226H4.36456C4.33412 1.63747 4.34021 1.61921 4.32195 1.55834C4.32195 1.5766 4.2976 1.55834 4.27325 1.50355C4.27325 1.46703 4.29151 1.52181 4.26108 1.44268C4.27325 1.45485 4.29151 1.47311 4.29151 1.50964C4.29151 1.50964 4.30369 1.52181 4.30977 1.5279C4.30977 1.48529 4.27325 1.4305 4.26716 1.40007C4.26716 1.41224 4.27325 1.42442 4.27325 1.4305C4.25499 1.39398 4.23673 1.36354 4.21238 1.33311C4.21238 1.31485 4.21846 1.32702 4.23064 1.33311C4.21846 1.31485 4.20629 1.30267 4.18803 1.27224C4.2002 1.27224 4.21238 1.27224 4.23673 1.30876L4.17585 1.21136C4.17585 1.21136 4.16368 1.15049 4.17585 1.16266C4.15151 1.10788 4.07846 1.04092 4.04193 0.967873C4.04193 0.967873 4.02976 0.961786 4.01759 0.949611C3.97497 0.888739 3.95063 0.815692 3.87149 0.760906L3.85323 0.706121C3.80453 0.657423 3.88367 0.773081 3.79844 0.693947C3.73757 0.639161 3.79236 0.657423 3.7741 0.633074C3.73757 0.608725 3.67061 0.578289 3.62191 0.511329C3.64626 0.523504 3.65844 0.541765 3.6767 0.55394L3.70714 0.566114ZM2.95232 0.127832C2.95232 0.127832 3.0071 0.13392 3.01319 0.146094C2.98884 0.152181 2.97667 0.146094 2.95232 0.127832ZM1.64964 0.109571C1.64964 0.109571 1.68008 0.097396 1.70443 0.097396C1.69226 0.097396 1.67399 0.103483 1.64964 0.109571ZM0.213054 2.95232C0.213054 2.92797 0.206967 2.91579 0.213054 2.95232ZM0.231316 3.02536C0.231316 3.02536 0.231316 3.02536 0.237403 3.02536C0.237403 3.02536 0.225228 3.0071 0.219141 2.98884C0.219141 2.99493 0.219141 3.0071 0.231316 3.02536ZM4.26716 2.7697V2.75752C4.26716 2.78796 4.26716 2.78187 4.26716 2.7697Z" fill="#3D0102"/>
<path d="M1.78967 0.0547867L1.79576 0.0608739C1.80185 0.0608739 1.79576 0.0608739 1.78967 0.0547867Z" fill="#3D0102"/>
<path d="M0 1.87487C0 1.87487 0.00608725 1.85052 0.0121745 1.84444C0.0121745 1.84444 0.00608725 1.84444 0 1.87487Z" fill="#3D0102"/>
<path d="M0.426066 3.36625L0.39563 3.32973C0.39563 3.32973 0.407804 3.36016 0.413892 3.36625C0.413892 3.36625 0.413892 3.35408 0.426066 3.36625Z" fill="#3D0102"/>
<path d="M0.608751 3.74975C0.608751 3.74975 0.608751 3.74975 0.627013 3.76192C0.627013 3.76192 0.590489 3.71931 0.608751 3.74975Z" fill="#3D0102"/>
<path d="M0.407837 3.42712C0.407837 3.42712 0.420011 3.46365 0.438273 3.488C0.456535 3.488 0.432186 3.46365 0.407837 3.43321V3.42712Z" fill="#3D0102"/>
<path d="M0.444336 3.49408C0.444336 3.49408 0.45651 3.50625 0.462598 3.51843C0.468685 3.51843 0.45651 3.50625 0.444336 3.49408Z" fill="#3D0102"/>
<path d="M0.273889 3.11059C0.273889 3.11059 0.292151 3.11059 0.292151 3.12276C0.310412 3.13494 0.231278 3.03754 0.273889 3.11059Z" fill="#3D0102"/>
<path d="M0.389616 3.47582L0.395703 3.45756L0.377441 3.44538L0.389616 3.47582Z" fill="#3D0102"/>
<path d="M0.267822 3.23233L0.286084 3.28103C0.286084 3.28103 0.286084 3.28103 0.298259 3.2932C0.286084 3.26277 0.27391 3.22624 0.267822 3.23233Z" fill="#3D0102"/>
<path d="M0.298218 3.29321C0.298218 3.29321 0.31648 3.32364 0.322567 3.32973C0.322567 3.32973 0.310392 3.31147 0.298218 3.29321Z" fill="#3D0102"/>
<path d="M0.346981 3.40886L0.340894 3.39668L0.322632 3.36016L0.346981 3.40886Z" fill="#3D0102"/>
<path d="M0.0851924 2.67839L0.0730179 2.61752C0.0730179 2.61752 0.0669307 2.62969 0.0730179 2.64795C0.0730179 2.66013 0.0851924 2.68448 0.0851924 2.6723V2.67839Z" fill="#3D0102"/>
<path d="M0.0852784 2.86709C0.0852784 2.86709 0.0852784 2.84883 0.0852784 2.83665H0.0670166L0.0791911 2.86709H0.0852784Z" fill="#3D0102"/>
<path d="M0.0426678 2.69665C0.0426678 2.69665 0.0122316 2.61143 0.0304933 2.69057C0.0304933 2.69057 0.0487551 2.75752 0.0426678 2.69665Z" fill="#3D0102"/>
<path d="M0.0731039 1.78965L0.0670166 1.80791H0.0974529L0.0731039 1.78965Z" fill="#3D0102"/>
<path d="M0.316553 1.02266C0.273942 1.08353 0.32264 1.04701 0.280029 1.10179C0.280029 1.12005 0.316553 1.05918 0.310466 1.07744C0.328727 1.03483 0.340902 1.01657 0.310466 1.02266H0.316553Z" fill="#3D0102"/>
<path d="M0.310409 1.07136C0.310409 1.07136 0.310409 1.08353 0.304321 1.09571C0.304321 1.08962 0.304321 1.07744 0.310409 1.07136Z" fill="#3D0102"/>
<path d="M2.33141 4.38282L2.28271 4.37673L2.31315 4.38891L2.33141 4.38282Z" fill="#3D0102"/>
<path d="M2.24624 4.40717L2.23407 4.38891L2.20972 4.40717C2.20972 4.40717 2.24015 4.40717 2.24624 4.40717Z" fill="#3D0102"/>
<path d="M2.83667 0.0547867C2.83667 0.0547867 2.85493 0.0669612 2.87319 0.0730484L2.84276 0.0547867H2.83667Z" fill="#3D0102"/>
<path d="M3.4149 0.328711L3.40881 0.322624L3.4149 0.346973V0.328711Z" fill="#3D0102"/>
<path d="M3.85326 0.657425C3.85326 0.657425 3.81674 0.626988 3.80457 0.608727C3.84109 0.639163 3.84109 0.675686 3.85326 0.657425Z" fill="#3D0102"/>
<path d="M9.96492 11.6814C9.96492 10.0074 10.738 9.00913 12.2111 9.00913C13.5686 9.00913 14.2199 9.96483 14.2199 11.6814V17.933H17.8905V10.3909C17.8905 7.20121 16.0826 5.65505 13.5564 5.65505C11.0302 5.65505 9.96492 7.62123 9.96492 7.62123V6.0142H6.42822V17.9269H9.96492V11.6753V11.6814Z" fill="#01193D"/>
<path d="M9.89181 11.7545C9.89181 11.6632 9.87964 11.6936 9.87964 11.6814C9.87964 11.8397 9.8979 11.7545 9.89181 11.7545Z" fill="#3D0102"/>
<path d="M9.92222 13.3067L9.91614 13.2763L9.92831 13.5076L9.92222 13.3067Z" fill="#3D0102"/>
<path d="M9.92221 14.7555C9.94047 14.6155 9.92221 14.232 9.92221 13.9702V13.9276L9.91003 13.812C9.91003 14.1285 9.92221 14.5364 9.91612 14.7555H9.92221Z" fill="#3D0102"/>
<path d="M9.87354 15.5286C9.87962 15.4799 9.87962 15.6929 9.87354 15.346C9.87354 15.3642 9.87354 15.3703 9.87354 15.3764C9.87354 15.4068 9.87354 15.4494 9.87354 15.5225V15.5286Z" fill="#3D0102"/>
<path d="M9.87356 15.3825C9.87356 15.2303 9.86747 15.4799 9.87356 15.3825Z" fill="#3D0102"/>
<path d="M9.87959 16.0886V15.8877C9.86741 15.9303 9.86742 16.1069 9.86133 16.0399C9.86133 16.2469 9.86741 16.2043 9.87959 16.0886Z" fill="#3D0102"/>
<path d="M9.88574 15.9486V16.1677C9.88574 16.1677 9.904 16.1373 9.88574 16.0643C9.89183 16.0825 9.88574 16.0399 9.88574 15.9425V15.9486Z" fill="#3D0102"/>
<path d="M9.89187 15.8269C9.89187 15.7112 9.89795 15.5712 9.90404 15.7721C9.90404 15.3886 9.88578 15.4434 9.89187 15.8269Z" fill="#3D0102"/>
<path d="M9.86743 17.3365C9.86743 17.3365 9.87961 17.2695 9.88569 17.2513V17.1052C9.87961 17.1843 9.87352 17.3243 9.86743 17.3365Z" fill="#3D0102"/>
<path d="M9.88574 17.2574V17.4826C9.89183 17.2817 9.88574 17.2452 9.88574 17.2574Z" fill="#3D0102"/>
<path d="M9.91623 16.3138L9.90405 15.9486L9.92231 16.3808L9.91623 16.3138Z" fill="#3D0102"/>
<path d="M9.70921 17.8356L9.83704 17.8296L9.61182 17.8417L9.70921 17.8356Z" fill="#3D0102"/>
<path d="M9.14313 17.8417C9.23444 17.8356 9.0153 17.8296 9.1127 17.8235C8.99095 17.8235 8.85094 17.8356 8.71094 17.8417C8.83877 17.8417 8.9666 17.8417 9.14313 17.8417Z" fill="#3D0102"/>
<path d="M8.51611 17.8417C8.5709 17.8417 8.63786 17.8417 8.71091 17.8296C8.65612 17.8296 8.59525 17.8296 8.51611 17.8417Z" fill="#3D0102"/>
<path d="M9.89187 17.8356C9.89187 17.8356 9.89187 17.8417 9.88578 17.8539H9.85535C9.85535 17.8539 9.87361 17.8539 9.88578 17.86V17.8356H9.89187Z" fill="#3D0102"/>
<path d="M9.91003 16.8982C9.91612 17.026 9.92221 17.3 9.93438 17.0382C9.9283 16.9469 9.92221 17.093 9.91003 16.8982Z" fill="#3D0102"/>
<path d="M9.91014 17.7261V17.4887C9.91014 17.4887 9.91014 17.5374 9.90405 17.4704V17.7261H9.91014Z" fill="#3D0102"/>
<path d="M8.92389 17.8539C8.78389 17.8539 8.69867 17.8539 8.58301 17.86C8.72301 17.86 8.86302 17.86 8.99085 17.86C9.00912 17.86 9.06999 17.8478 8.92389 17.8478V17.8539Z" fill="#3D0102"/>
<path d="M7.34131 17.86L7.35957 17.8661L7.36566 17.86H7.34131Z" fill="#3D0102"/>
<path d="M9.36829 17.8539C9.32568 17.8539 9.27699 17.8539 9.23438 17.86C9.29525 17.86 9.35003 17.86 9.40482 17.86C9.39264 17.86 9.38047 17.86 9.36829 17.86V17.8539Z" fill="#3D0102"/>
<path d="M6.9639 17.9452C6.9639 17.9452 7.25 17.9209 7.48131 17.933C7.70654 17.927 7.56045 17.8843 7.35957 17.8661C7.35348 17.8661 7.35348 17.8783 7.12216 17.8843C7.2013 17.8904 7.63958 17.8965 7.44479 17.9087C7.13434 17.9087 7.18912 17.9087 7.04303 17.8965C7.17086 17.9087 6.64736 17.9148 6.71432 17.9391H6.98824C6.98824 17.9391 6.89694 17.9391 6.96998 17.9391L6.9639 17.9452Z" fill="#3D0102"/>
<path d="M7.80387 17.8661H7.90126C7.81604 17.8661 7.73691 17.8539 7.56646 17.8478C7.4082 17.8478 7.37167 17.86 7.3595 17.86H7.8343H7.80387V17.8661Z" fill="#3D0102"/>
<path d="M8.33351 17.8661C8.26047 17.8783 8.02915 17.8843 8.16916 17.8965C8.44917 17.8965 8.36395 17.8843 8.53439 17.8783C8.07785 17.8783 8.66222 17.8722 8.33351 17.8661C8.43091 17.8661 8.50396 17.8661 8.577 17.8661H8.3396H8.35178C8.37612 17.8661 8.37004 17.8661 8.35178 17.8661H8.3396C8.3396 17.8661 8.32743 17.8661 8.32134 17.8661C8.18742 17.8661 8.30308 17.8661 8.3396 17.8661H7.88306C7.98654 17.8722 8.1022 17.8722 8.31525 17.8722L8.33351 17.8661Z" fill="#3D0102"/>
<path d="M9.95271 17.4643C9.95271 17.4339 9.94662 17.4034 9.95271 17.2939C9.95271 17.2026 9.95271 17.2939 9.96489 17.2939C9.96489 17.2269 9.9588 17.0686 9.95271 17.2695V17.3C9.95271 17.4826 9.93445 17.72 9.93445 17.6895C9.94662 17.6348 9.95271 17.5861 9.96489 17.4643H9.95271Z" fill="#3D0102"/>
<path d="M9.36838 17.8965H8.99097L9.18576 17.9148H9.17358C9.38664 17.9148 9.34403 17.9026 9.36838 17.8965Z" fill="#3D0102"/>
<path d="M7.29862 17.8539L7.34731 17.8417L7.12817 17.86L7.29862 17.8539Z" fill="#3D0102"/>
<path d="M6.8056 17.86L6.82386 17.8478L6.68994 17.8539L6.8056 17.86Z" fill="#3D0102"/>
<path d="M17.8661 9.21609C17.8783 9.25262 17.8783 9.28914 17.8843 9.32567C17.8843 9.27088 17.8722 9.24044 17.8661 9.21609Z" fill="#3D0102"/>
<path d="M17.6714 8.41867L17.6592 8.40041C17.6714 8.43693 17.6774 8.4491 17.6714 8.41867Z" fill="#3D0102"/>
<path d="M6.50122 6.20291C6.50122 6.12377 6.50731 6.11769 6.51339 6.10551C6.52557 6.10551 6.53774 6.10551 6.53774 6.1116C6.56209 6.1116 6.57427 6.1116 6.56818 6.1116C6.54992 6.1116 6.53166 6.10551 6.53166 6.09943C6.51948 6.09943 6.50731 6.09943 6.50122 6.09943C6.50122 6.13595 6.50122 6.16639 6.50122 6.20291Z" fill="#3D0102"/>
<path d="M12.2597 5.84376L12.211 5.85593C12.1745 5.87419 12.1441 5.88637 12.1136 5.90463C12.1563 5.88637 12.205 5.86811 12.2597 5.84376Z" fill="#3D0102"/>
<path d="M12.3572 5.76463L12.5702 5.72202C12.5094 5.73419 12.4424 5.74636 12.3572 5.76463Z" fill="#3D0102"/>
<path d="M17.9696 13.6294L17.9818 13.7572C17.9818 13.5563 17.9757 13.6415 17.9696 13.6294Z" fill="#3D0102"/>
<path d="M6.49508 13.258C6.49508 13.0998 6.49508 12.9963 6.50116 12.9111C6.49508 13.0815 6.4829 13.2154 6.49508 13.258Z" fill="#3D0102"/>
<path d="M17.6714 8.92999C17.6896 8.99695 17.6957 9.0213 17.6957 9.0213C17.6775 8.95434 17.6714 8.91782 17.6714 8.92999Z" fill="#3D0102"/>
<path d="M6.50122 12.5032C6.50122 12.5032 6.50122 12.5519 6.50122 12.5763C6.50122 12.6858 6.50122 12.7832 6.50122 12.905C6.50122 12.7832 6.50731 12.6371 6.50122 12.5032Z" fill="#3D0102"/>
<path d="M13.8181 10.0014C13.8181 10.0014 13.8059 9.98309 13.8059 9.97092C13.8059 9.97092 13.8059 9.98309 13.8181 10.0014Z" fill="#3D0102"/>
<path d="M10.1232 10.3301C10.1353 10.2875 10.1719 10.2144 10.1962 10.1474C10.184 10.1779 10.1536 10.2327 10.1232 10.3301Z" fill="#3D0102"/>
<path d="M6.4586 16.8312C6.4586 16.8312 6.4586 16.7947 6.45251 16.7886C6.45251 16.7947 6.45251 16.813 6.4586 16.8312Z" fill="#3D0102"/>
<path d="M9.34398 5.95333C9.18571 5.97159 9.0944 5.96551 8.97266 5.96551L9.0944 6.00203L9.34398 5.95333Z" fill="#3D0102"/>
<path d="M17.9635 11.1518L17.9757 10.8901C17.994 11.2066 17.9879 11.4379 18.0061 11.1884C17.9635 11.1518 18.0061 10.1657 17.9513 10.1231V9.94657C17.9513 9.99527 17.9513 10.0074 17.9574 10.0561C17.9635 9.71525 17.9148 9.80656 17.8783 9.36828C17.8661 9.2161 17.8418 9.11261 17.8722 9.21001L17.7931 8.87521C17.7748 8.77782 17.787 8.80216 17.8052 8.89956C17.7748 8.72912 17.7139 8.56476 17.6652 8.39432C17.6409 8.32736 17.5739 8.17518 17.5374 8.09604C17.4948 7.9743 17.5678 8.15692 17.5557 8.12039L17.44 7.85864C17.4035 7.74907 17.507 7.96212 17.58 8.15083C17.5131 7.88908 17.5009 7.9256 17.227 7.40818C17.2817 7.48123 17.3183 7.56645 17.367 7.64559C17.3061 7.47514 17.1843 7.29861 17.0078 7.03686C17.0504 7.09773 17.3365 7.57254 17.1478 7.31688C17.093 7.24383 17.0443 7.13426 16.9226 7.0186C16.9287 7.01251 16.8252 6.87859 16.6791 6.7325H16.7035C16.533 6.58032 16.5391 6.59858 16.4356 6.51945C16.2347 6.36726 16.1982 6.32465 16.1617 6.28204C15.8269 6.05681 16.3869 6.4464 15.9791 6.19682C15.693 6.02638 15.4738 5.9229 15.0903 5.81941C14.8712 5.74637 15.1329 5.81941 15.0538 5.78898C14.9868 5.7768 14.9199 5.75245 14.8529 5.74636C14.8042 5.73419 14.8225 5.73419 14.8286 5.73419C14.6581 5.70375 14.8103 5.74636 14.5425 5.69767C14.4694 5.69767 13.9946 5.5881 13.6537 5.60636C13.5685 5.60027 13.6964 5.59418 13.6659 5.5881C13.2033 5.61853 13.2642 5.5881 12.8928 5.66723C12.7833 5.67941 12.6798 5.68549 12.5702 5.70984C12.8015 5.66723 12.5093 5.75245 12.2598 5.83767C12.345 5.81941 12.418 5.80724 12.4606 5.80115C12.3267 5.83159 12.1928 5.88028 12.065 5.93507C12.0163 5.94724 12.0528 5.93507 12.1137 5.89855C12.0893 5.91072 12.065 5.91681 12.0406 5.92898C11.8945 5.97159 11.9676 5.93507 12.065 5.89246C12.1137 5.88028 12.1624 5.86811 12.2111 5.85594C12.3024 5.80724 12.3998 5.78289 12.3754 5.77071C12.3328 5.78289 12.2902 5.79506 12.2415 5.81332C12.2658 5.80115 12.2841 5.79506 12.2719 5.79506C12.2598 5.79506 12.2171 5.81941 12.1502 5.84376L12.0528 5.85594L12.0345 5.8742C11.858 5.92898 11.6876 6.00812 11.5171 6.08725C11.1762 6.29422 10.8962 6.50727 10.464 6.95773C10.5614 6.83598 10.464 6.91512 10.464 6.89686C10.5919 6.7812 10.811 6.54988 11.0788 6.36726C10.9327 6.45857 10.9632 6.44031 10.9936 6.40379C10.8414 6.52553 10.6953 6.65337 10.5553 6.79337C10.5553 6.77511 10.4579 6.87251 10.3484 6.98208C10.4518 6.90294 10.0501 7.3534 10.0136 7.45688C10.0257 7.42645 10.0197 7.4021 10.1414 7.24992C10.0501 7.34731 10.0562 7.36557 10.0014 7.46297C9.97704 7.50558 9.98313 7.38992 9.98313 7.29861C9.98313 7.34731 9.98313 7.37166 9.98313 7.38384C9.97704 7.32905 9.98313 6.87859 9.98922 6.98816V7.05512C9.98922 6.76902 9.98922 6.33074 9.98922 5.97768C9.86138 5.97768 9.75181 5.97768 9.64224 5.98377C9.56311 5.98377 9.51441 5.98986 9.49615 5.99594C9.49615 5.99594 9.55702 5.96551 9.58746 5.95942L8.75959 6.04464C8.83264 6.02029 8.55262 5.97159 8.93612 5.95942C8.82655 5.95942 8.68654 5.95333 8.45523 5.95942C8.52828 5.95942 8.64393 5.98986 8.54045 5.98986C8.26044 5.96551 8.34566 5.97768 7.9926 5.95942C8.10826 5.95942 7.98042 5.99594 7.80389 5.99594C7.83433 5.99594 7.79172 5.96551 7.85259 5.95942L7.40822 5.98986C7.51779 5.98986 7.42648 5.95942 7.32909 5.95333C7.37778 5.95942 6.94559 5.95333 6.82385 5.95333H7.01255C6.67775 5.95333 6.59862 5.97768 6.38556 5.98986C6.39165 6.1116 6.39774 6.21508 6.39774 6.3977C6.39165 6.33683 6.35513 6.25161 6.34904 6.50118C6.3673 6.61684 6.42817 7.01251 6.44035 7.45688L6.42817 7.5421L6.44035 7.88299C6.416 7.66994 6.36121 7.07947 6.34295 6.75685C6.33687 6.94555 6.33078 6.81163 6.33078 7.09165C6.32469 7.18904 6.3186 6.93947 6.3186 6.85424V7.51167C6.3186 7.51167 6.33078 8.01082 6.34904 7.98647L6.33078 7.27426C6.33078 7.27426 6.38556 7.6882 6.38556 8.15083C6.37948 8.26649 6.34904 8.05952 6.34295 8.07169C6.34904 8.13257 6.35513 8.50998 6.34904 8.55259L6.33687 8.35779C6.33078 8.61346 6.36121 8.77782 6.34295 9.08827C6.34295 9.19784 6.3186 9.41089 6.33078 9.42915C6.35513 9.25262 6.42209 9.22218 6.44035 9.33784C6.44035 9.37437 6.416 9.837 6.40991 10.0257C6.39165 10.2022 6.3673 9.75786 6.35513 9.91004C6.35513 9.91613 6.3673 10.0135 6.3673 10.0561C6.3673 10.1657 6.34904 10.0074 6.35513 10.257C6.37339 10.2996 6.35513 10.7562 6.37339 10.3727C6.37339 10.6101 6.37339 10.6283 6.37339 10.9084C6.38556 10.817 6.416 11.1579 6.42209 11.4014C6.42209 11.3892 6.40991 11.444 6.40991 11.4684C6.40991 11.9493 6.40383 12.2293 6.39774 12.6797C6.39774 12.7224 6.38556 12.9415 6.37948 12.8502C6.37948 12.9171 6.39165 12.978 6.39165 13.118C6.37339 13.392 6.39165 12.8015 6.3673 13.0145C6.37948 13.0328 6.38556 13.3798 6.39165 13.5807C6.40991 13.5198 6.39165 13.118 6.39165 12.9171C6.416 12.9171 6.44035 13.2641 6.45252 13.745C6.45861 14.1224 6.43426 13.9094 6.44035 13.9763C6.44035 14.6885 6.48296 14.5851 6.4647 15.1755C6.44644 15.4129 6.43426 15.1877 6.42209 15.2364C6.42209 14.9259 6.43426 14.7616 6.43426 14.5546V14.8103C6.42209 14.7129 6.416 14.5059 6.42209 14.3903C6.40991 14.5851 6.42209 15.5955 6.40383 16.1434C6.40383 16.2408 6.416 16.4112 6.42209 16.3321V16.1556C6.43426 15.9973 6.44035 16.4843 6.44035 16.2651C6.44644 16.4964 6.4647 16.7582 6.45861 17.0869L6.44035 17.1478C6.44035 17.1478 6.45252 16.9347 6.44035 16.8373C6.44644 16.9773 6.416 17.3426 6.44035 17.4948L6.45252 17.2634C6.45861 17.4461 6.47078 17.6956 6.47687 17.8722C6.50122 17.8722 6.52557 17.8722 6.55601 17.8722C6.48296 17.86 6.5134 17.8661 6.48296 17.8661C6.48296 17.86 6.48296 17.8417 6.49513 17.8113C6.47078 17.9939 6.49513 17.0626 6.47078 17.3548C6.49513 17.1417 6.48296 16.9895 6.50122 16.7095C6.50122 16.7156 6.48905 16.8069 6.49513 16.5634C6.49513 16.5451 6.49513 16.5208 6.49513 16.5086C6.49513 16.5025 6.49513 16.4964 6.49513 16.4904V16.5025C6.49513 16.5634 6.49513 16.606 6.48905 16.6243C6.47687 16.5025 6.47687 16.113 6.47078 15.979C6.47078 15.8329 6.47687 16.0399 6.48296 15.9608L6.47078 15.766C6.47078 15.766 6.49513 15.3825 6.50122 15.7234V15.4129C6.50731 15.2303 6.5134 14.9807 6.50122 14.8285C6.50122 14.6824 6.48905 14.4633 6.50122 14.5911V14.1102C6.50122 13.6354 6.47687 13.1302 6.50122 12.5823C6.50122 12.4119 6.50122 12.2597 6.50122 11.9858L6.5134 11.931C6.5134 11.724 6.52557 11.3101 6.5134 11.2249C6.54383 11.0057 6.51948 10.2266 6.52557 9.86135L6.5134 9.84917C6.5134 9.60568 6.5134 9.37437 6.50122 9.05174L6.48905 9.07C6.47687 8.80216 6.50122 8.38214 6.49513 7.96212C6.49513 7.99256 6.49513 8.09604 6.49513 8.17518C6.52557 7.66994 6.47078 7.10991 6.49513 6.65337C6.49513 6.53771 6.49513 6.45857 6.49513 6.37944C6.49513 6.39161 6.49513 6.3977 6.49513 6.40988C6.49513 6.3977 6.49513 6.37944 6.49513 6.36118C6.49513 6.31248 6.49513 6.25769 6.50122 6.20291C6.50122 6.25769 6.50122 6.30639 6.49513 6.33683C6.49513 6.27596 6.49513 6.18465 6.49513 6.08725H6.5134C6.5134 6.08725 6.53166 6.09334 6.54383 6.09943H6.56209C6.68993 6.09943 6.66558 6.09334 6.59862 6.08116C6.6534 6.08116 6.71427 6.08116 6.76906 6.07508C6.87254 6.09943 7.10995 6.06899 7.25604 6.09334C7.34126 6.08116 7.91346 6.08725 7.98042 6.05681C7.98042 6.05681 8.02303 6.05681 7.94999 6.05681C8.09608 6.05681 8.24217 6.05681 8.37001 6.05681L8.43088 6.07508L8.74742 6.05073C8.94221 6.0629 9.02134 6.06899 8.82655 6.08116C9.3257 6.0629 9.137 6.06899 9.59354 6.05073L9.57528 6.0629C9.66659 6.0629 9.84312 6.05681 9.92834 6.05073C9.92834 6.0629 9.92834 6.07508 9.92834 6.09334C9.92226 6.17247 9.91617 6.42205 9.91617 6.69598C9.91617 6.83598 9.91617 6.99425 9.91617 7.15252C9.91617 7.28644 9.91008 7.63341 9.92226 7.79168C10.0318 7.59689 10.1779 7.37775 10.2571 7.28644C10.3362 7.18296 10.4275 7.09165 10.5066 7.00643C10.3727 7.09165 10.7806 6.75076 10.7866 6.72032C10.8232 6.69598 10.9145 6.62902 10.8232 6.72032C11.1336 6.45249 11.3162 6.36118 11.5476 6.209C11.5902 6.19073 11.4806 6.26378 11.5171 6.24552C11.5476 6.22726 11.6267 6.17247 11.6693 6.1603C11.7058 6.14812 11.6206 6.19073 11.5658 6.22726C11.931 6.03855 11.9676 6.00812 11.9858 5.97768C12.1928 5.91681 12.2841 5.8742 12.4302 5.83159C12.5032 5.81941 12.625 5.80115 12.3754 5.86202C12.4485 5.84985 12.6615 5.78289 12.8685 5.76463C13.0694 5.7281 13.2642 5.72202 13.2702 5.70984C13.3189 5.70984 13.4772 5.70375 13.5137 5.69767C13.8424 5.70984 13.8729 5.69767 14.1894 5.73419L14.0981 5.72202C14.2259 5.72202 14.3659 5.73419 14.6216 5.79506H14.6155C14.9077 5.86202 14.9686 5.88637 15.0295 5.90463C15.0903 5.92898 15.1573 5.92289 15.419 6.05073L15.3947 6.02638C15.4617 6.0142 15.8695 6.24552 16.1495 6.44031L16.0521 6.36118C16.1313 6.40988 16.2286 6.4951 16.326 6.58032C16.4174 6.67163 16.5026 6.77511 16.5695 6.83598C16.6 6.86642 16.5208 6.79337 16.4782 6.75685C16.813 7.10382 16.5391 6.7812 16.7887 7.04295C16.8252 7.09773 16.7156 6.99425 16.8739 7.17687C16.9226 7.24383 17.0078 7.36557 17.1296 7.52993C17.227 7.70646 17.3548 7.90125 17.3974 8.06561C17.3791 7.99256 17.3548 7.9256 17.4278 8.07778C17.5374 8.31518 17.6348 8.74738 17.6957 8.97261C17.6957 9.00304 17.6957 9.02131 17.6957 9.02131C17.7565 9.21001 17.7992 9.65438 17.8296 9.77612C17.8052 9.95874 17.8844 11.0179 17.8296 11.0118V11.6266V11.6084C17.8296 12.0041 17.8357 12.138 17.8479 12.278C17.8479 12.3693 17.8418 12.3023 17.8357 12.2962C17.8296 12.8684 17.8296 12.9293 17.8479 13.4102L17.8357 13.4589C17.8418 13.5867 17.8113 14.2929 17.8357 14.8529C17.8357 14.8529 17.8357 14.8346 17.8296 14.792C17.8479 15.4251 17.787 16.3077 17.8418 16.5451L17.8539 16.9652C17.8539 16.4234 17.8783 17.0443 17.8844 16.8252C17.8844 17.0382 17.8661 17.373 17.8661 17.1113V17.0687C17.8418 16.9713 17.86 17.7443 17.8418 17.7261V17.8843C16.8678 17.8843 15.906 17.8722 14.9868 17.8722L15.1025 17.8965H14.7555C14.6642 17.8904 14.6338 17.8783 14.8834 17.8783C14.7555 17.8661 14.4694 17.8904 14.4573 17.8904C14.3233 17.8904 14.299 17.8904 14.3051 17.8843C14.3051 17.8843 14.3112 17.8843 14.3538 17.8783C14.4451 17.8783 14.5729 17.8661 14.4999 17.8661H14.3173H14.3416C14.3172 17.8661 14.2929 17.8661 14.2746 17.8722C14.2746 17.8539 14.2746 17.8417 14.2686 17.7991C14.2686 17.7382 14.2686 17.6713 14.2686 17.5739C14.2686 17.3852 14.2807 17.4765 14.2807 17.4034C14.2807 17.4034 14.2807 17.3791 14.2807 17.2878V16.8495L14.2686 17.026C14.2625 16.8312 14.2686 16.6121 14.2503 16.813C14.2807 16.5147 14.2625 15.1755 14.2686 14.9929C14.2564 14.719 14.2564 14.4511 14.2564 14.1163C14.2564 14.2016 14.232 14.2503 14.2381 13.9642C14.2746 14.0676 14.2564 13.4406 14.2807 13.2032C14.2625 13.4102 14.2807 12.3876 14.2503 12.7102C14.2503 12.4728 14.2625 12.698 14.2746 12.5154C14.2442 11.9493 14.3355 11.2492 14.159 10.5492C14.1529 10.537 14.1712 10.6588 14.1285 10.5127C14.1042 10.3909 14.0798 10.2631 14.0372 10.1474C13.9825 10.0135 13.9642 10.0379 13.8546 9.80047C13.8729 9.83091 13.8972 9.8857 13.8424 9.80047C13.6659 9.49611 13.392 9.23436 13.0511 9.10653C12.7163 8.96652 12.345 8.93608 11.9919 8.96652C11.2675 8.99087 10.5614 9.41698 10.2266 10.0622C10.3362 9.89787 10.2631 10.0074 10.2023 10.1414C10.2449 10.0561 10.2144 10.1474 10.2266 10.1353C10.1353 10.3118 10.0623 10.5005 10.0136 10.6953C9.98922 10.8049 9.91617 11.3284 9.93443 11.3892L9.9466 11.2005C9.94052 11.4501 10.0318 10.8597 10.0623 10.9023C10.0866 10.6283 10.251 10.2022 10.4884 9.82482C10.5492 9.75178 10.4458 9.89787 10.4884 9.86135C10.5432 9.76395 10.6223 9.64829 10.8171 9.49002L10.7988 9.50829C11.0667 9.28306 11.3162 9.19175 11.5658 9.12479C11.8215 9.07 12.1015 9.03348 12.4972 9.07609C12.4789 9.07 12.4606 9.05783 12.4424 9.05783C12.6128 9.08218 12.6493 9.08827 12.7224 9.11261C12.9233 9.1187 12.2537 9.03348 12.4302 9.04565C12.5398 9.07 12.8441 9.10044 13.1059 9.24045C13.3676 9.36828 13.5685 9.57525 13.599 9.64829C13.7633 9.84917 13.5685 9.57525 13.7207 9.78221L13.7511 9.84308L13.7937 9.89178C13.8729 10.044 13.8972 10.1292 13.8911 10.1353C13.879 10.0927 13.8364 10.0318 13.8181 9.98918C13.9155 10.184 14.0433 10.5736 14.0494 10.6527C14.0372 10.5675 14.0129 10.4883 13.9946 10.4092C14.2199 11.0971 14.1407 12.0101 14.1712 12.7163V12.6615C14.1894 13.2032 14.1712 13.0937 14.1712 13.6902V13.6659C14.1712 13.7876 14.1772 13.9459 14.1772 14.1042C14.1712 13.952 14.1651 14.3842 14.1529 14.1894C14.1651 14.7738 14.1651 14.4816 14.1894 14.8651L14.1772 14.9564C14.1894 15.0903 14.1894 15.1025 14.1955 15.3947C14.1833 15.1512 14.1772 15.5834 14.1651 15.3094C14.1407 15.9303 14.1894 16.2347 14.1529 16.5208C14.1833 16.8069 14.1712 15.979 14.1772 16.1434C14.1894 16.0095 14.2016 16.3808 14.1955 16.5756C14.1955 16.7765 14.159 16.9165 14.159 17.4156C14.159 17.373 14.159 17.3608 14.159 17.3121C14.159 17.4034 14.159 17.4948 14.159 17.5922C14.159 17.7017 14.159 17.7565 14.159 17.9635V17.9757C14.3964 17.9574 14.4938 17.9757 14.5486 17.9574H14.1772V17.7869C14.1772 17.8356 14.1772 17.8965 14.1772 17.9574C14.299 17.9574 14.439 17.9452 14.5668 17.9391C14.6947 17.9391 14.8408 17.9391 15.0173 17.9391C14.9503 17.9391 14.8408 17.9513 14.7677 17.9513C14.9381 17.9513 14.9625 17.9513 15.139 17.9513C15.0964 17.9757 14.5973 17.9513 14.2868 17.9757C14.4512 17.9878 14.8225 17.9574 14.6886 17.9817C14.8895 17.9513 15.1816 17.9817 15.5225 17.9635L15.4982 17.9757C15.553 17.9757 15.6808 17.9757 15.7599 17.9696L15.5834 17.9878C15.8573 17.9696 16.113 18 16.3747 17.9878C15.8208 17.9878 16.253 17.9696 16.0156 17.9635C16.6974 17.9452 16.4052 18 17.1661 17.9939C17.0626 17.9939 16.7765 17.9878 16.9409 17.9817C17.0869 17.9817 17.2757 17.9878 17.367 18C17.8722 18 17.2878 17.9878 17.507 17.9757C17.6713 17.9878 17.6896 17.9757 17.9331 17.9696C17.9331 17.9209 17.9331 17.8783 17.9331 17.8356H17.9453C17.9513 17.2391 17.9148 17.6774 17.927 17.1539L17.9453 17.373V17.1052L17.9574 17.16C17.9453 16.8678 17.9513 16.7765 17.9574 16.4904C17.9453 16.5573 17.9331 16.4538 17.9331 16.1982C17.9392 16.0216 17.9453 16.2956 17.9453 15.9364C17.9513 16.0156 17.9635 16.1069 17.9513 16.2651L17.9635 16.3625C17.9757 16.1738 17.9635 15.8938 17.9635 15.7599C17.9635 15.8025 17.9635 15.8573 17.9635 15.8999L17.9453 15.3764C17.9453 15.2912 17.9574 15.3581 17.9574 15.4251C17.9574 15.3277 17.9574 15.2242 17.9453 15.0903C17.9574 15.1329 17.9696 15.1207 17.9757 15.3399L17.9635 14.8407C17.9635 14.8103 17.9757 14.5851 17.9818 14.652C17.9879 14.3781 17.9574 13.9763 17.9696 13.605C17.9696 13.5685 17.9696 13.532 17.9696 13.4711C17.9696 13.1241 17.9879 12.8197 17.9696 12.4119L17.9879 12.1806C17.9879 11.858 17.9635 12.491 17.9513 11.9614C17.9453 11.584 17.9696 11.8214 17.9757 11.6875C17.9635 11.4988 17.9453 11.1762 17.9635 10.8292C17.9635 10.9631 17.9635 11.0301 17.9635 11.1397V11.1518ZM17.1478 7.32296C17.1965 7.38384 17.2878 7.51167 17.3 7.56645C17.2452 7.49341 17.2209 7.43253 17.1478 7.32296ZM11.7119 6.03247C11.7606 6.00812 11.8458 5.96551 11.9371 5.93507C11.8702 5.96551 11.8154 5.98985 11.7119 6.03247ZM6.49513 15.1816C6.49513 15.1816 6.49513 15.1816 6.49513 15.1755C6.49513 15.0051 6.49513 15.0659 6.49513 15.1816ZM6.48905 15.5347C6.48905 15.5712 6.48905 15.5651 6.48905 15.5529C6.48905 15.5286 6.48905 15.4494 6.48905 15.3581C6.48905 15.3825 6.48296 15.4312 6.48905 15.5347ZM14.2746 17.3669V17.4339C14.2686 17.2756 14.2746 17.3243 14.2746 17.3669Z" fill="#3D0102"/>
<path d="M12.345 5.77071C12.345 5.77071 12.3754 5.77071 12.3815 5.77071C12.4119 5.75854 12.4119 5.75854 12.345 5.77071Z" fill="#3D0102"/>
<path d="M6.36731 10.05C6.36731 9.99526 6.36731 9.95265 6.3734 9.91004C6.3734 9.91004 6.36731 9.94048 6.36731 10.05Z" fill="#3D0102"/>
<path d="M6.51341 17.4095V17.1843C6.51341 17.2817 6.50732 17.3243 6.50732 17.3913C6.50732 17.3913 6.51341 17.3426 6.51341 17.4156V17.4095Z" fill="#3D0102"/>
<path d="M7.87089 17.933C7.9135 17.933 7.93176 17.933 7.97437 17.933H7.96828C7.82827 17.927 7.73088 17.933 7.87697 17.933H7.87089Z" fill="#3D0102"/>
<path d="M6.46474 17.6165C6.46474 17.6165 6.45865 17.8052 6.46474 17.8965V17.8783C6.46474 17.8783 6.47692 17.8661 6.47692 17.8296C6.47692 17.7809 6.47692 17.7017 6.47692 17.6104L6.46474 17.6165Z" fill="#3D0102"/>
<path d="M6.48901 17.8965C6.53162 17.8965 6.57424 17.8965 6.61685 17.8965C6.64119 17.8904 6.5438 17.8965 6.48901 17.8965Z" fill="#3D0102"/>
<path d="M6.49508 15.979C6.49508 16.0521 6.50725 16.0277 6.50725 16.0703C6.51943 16.1556 6.48899 15.5712 6.49508 15.979Z" fill="#3D0102"/>
<path d="M6.42822 17.7443L6.4404 17.6896L6.42822 17.5982V17.7443Z" fill="#3D0102"/>
<path d="M6.42212 17.3974L6.42821 17.3243V17.1478L6.42212 17.3974Z" fill="#3D0102"/>
<path d="M6.4404 13.7633V13.4893C6.4404 13.4893 6.42822 13.538 6.42822 13.6415C6.42822 13.7085 6.42822 13.812 6.4404 13.7694V13.7633Z" fill="#3D0102"/>
<path d="M6.39769 14.6033C6.39769 14.5303 6.40378 14.5242 6.40986 14.4816H6.3916L6.39769 14.6033Z" fill="#3D0102"/>
<path d="M6.39779 13.7937C6.39779 13.7937 6.38562 13.3919 6.38562 13.745C6.38562 13.7754 6.39779 14.0494 6.39779 13.7937Z" fill="#3D0102"/>
<path d="M6.42212 9.62395V9.69699L6.44647 9.68482L6.42212 9.62395Z" fill="#3D0102"/>
<path d="M6.47074 5.94115C6.42205 5.94115 6.37944 5.94115 6.349 5.94115C6.349 6.12986 6.349 6.14203 6.35509 6.15421C6.35509 6.16638 6.36117 6.19073 6.35509 6.32465C6.36117 6.40379 6.36117 6.08116 6.36726 6.1603C6.36726 6.07507 6.36726 6.0142 6.36726 5.95942C6.51944 5.95942 6.58031 5.95942 6.47074 5.94115Z" fill="#3D0102"/>
<path d="M9.9284 11.091L9.90405 11.304L9.92231 11.164L9.9284 11.091Z" fill="#3D0102"/>
<path d="M9.92231 11.4988L9.90405 11.5475L9.91623 11.6753C9.91623 11.6267 9.91623 11.5353 9.92231 11.4988Z" fill="#3D0102"/>
<path d="M16.807 6.82989L16.7948 6.81772C16.7948 6.81772 16.8435 6.88468 16.9105 6.96381L16.807 6.82989Z" fill="#3D0102"/>
<path d="M17.9209 9.47785L17.9148 9.42915L17.9087 9.52655L17.9209 9.47785Z" fill="#3D0102"/>
<path d="M18.0001 11.8884C18.0001 11.791 18.0001 11.6753 18.0001 11.5779C18.0001 11.791 17.9818 11.9188 18.0001 11.8884Z" fill="#3D0102"/>
</g>
<defs>
<clipPath id="clip0_3_2508">
<rect width="18" height="18.0183" fill="white"/>
</clipPath>
</defs>
</svg>
