<svg width="108" height="38" viewBox="0 0 108 38" fill="none" xmlns="http://www.w3.org/2000/svg">
<path d="M7.9 28.175C6.61667 28.175 5.46667 27.9667 4.45 27.55C3.43333 27.1333 2.61667 26.5167 2 25.7C1.4 24.8833 1.08333 23.9 1.05 22.75H5.6C5.66667 23.4 5.89167 23.9 6.275 24.25C6.65833 24.5833 7.15833 24.75 7.775 24.75C8.40833 24.75 8.90833 24.6083 9.275 24.325C9.64167 24.025 9.825 23.6167 9.825 23.1C9.825 22.6667 9.675 22.3083 9.375 22.025C9.09167 21.7417 8.73333 21.5083 8.3 21.325C7.88333 21.1417 7.28333 20.9333 6.5 20.7C5.36667 20.35 4.44167 20 3.725 19.65C3.00833 19.3 2.39167 18.7833 1.875 18.1C1.35833 17.4167 1.1 16.525 1.1 15.425C1.1 13.7917 1.69167 12.5167 2.875 11.6C4.05833 10.6667 5.6 10.2 7.5 10.2C9.43333 10.2 10.9917 10.6667 12.175 11.6C13.3583 12.5167 13.9917 13.8 14.075 15.45H9.45C9.41667 14.8833 9.20833 14.4417 8.825 14.125C8.44167 13.7917 7.95 13.625 7.35 13.625C6.83333 13.625 6.41667 13.7667 6.1 14.05C5.78333 14.3167 5.625 14.7083 5.625 15.225C5.625 15.7917 5.89167 16.2333 6.425 16.55C6.95833 16.8667 7.79167 17.2083 8.925 17.575C10.0583 17.9583 10.975 18.325 11.675 18.675C12.3917 19.025 13.0083 19.5333 13.525 20.2C14.0417 20.8667 14.3 21.725 14.3 22.775C14.3 23.775 14.0417 24.6833 13.525 25.5C13.025 26.3167 12.2917 26.9667 11.325 27.45C10.3583 27.9333 9.21667 28.175 7.9 28.175ZM27.8559 24.9H21.3059L20.2559 28H15.7809L22.1309 10.45H27.0809L33.4309 28H28.9059L27.8559 24.9ZM26.7559 21.6L24.5809 15.175L22.4309 21.6H26.7559ZM50.4135 10.45L44.3385 22.2V28H40.0635V22.2L33.9885 10.45H38.8385L42.2385 17.8L45.6135 10.45H50.4135ZM72.6338 10.45V28H68.3588V20.775H61.7088V28H57.4338V10.45H61.7088V17.325H68.3588V10.45H72.6338ZM79.9949 10.45V28H75.7199V10.45H79.9949Z" fill="#01193D"/>
<path d="M107.998 12.0665C108.035 11.5155 107.618 11.039 107.067 11.0022L98.0865 10.4035C97.5354 10.3668 97.0589 10.7837 97.0221 11.3348C96.9854 11.8859 97.4024 12.3624 97.9534 12.3991L105.936 12.9313L105.404 20.9135C105.367 21.4646 105.784 21.9411 106.335 21.9779C106.886 22.0146 107.362 21.5976 107.399 21.0466L107.998 12.0665ZM91.6585 26.7526L107.659 12.7526L106.341 11.2474L90.3415 25.2474L91.6585 26.7526Z" fill="#01193D"/>
</svg>
