<svg width="150" height="96" viewBox="0 0 150 96" fill="none" xmlns="http://www.w3.org/2000/svg">
<mask id="path-1-inside-1_566_3" fill="white">
<path d="M0 0H150V96H0V0Z"/>
</mask>
<path d="M0 0H150V96H0V0Z" fill="#01193D"/>
<path d="M0 0V-0.5H-0.5V0H0ZM150 0H150.5V-0.5H150V0ZM0 0.5H150V-0.5H0V0.5ZM149.5 0V96H150.5V0H149.5ZM0.5 96V0H-0.5V96H0.5Z" fill="black" mask="url(#path-1-inside-1_566_3)"/>
<path d="M29.9 57.175C28.6167 57.175 27.4667 56.9667 26.45 56.55C25.4333 56.1333 24.6167 55.5167 24 54.7C23.4 53.8833 23.0833 52.9 23.05 51.75H27.6C27.6667 52.4 27.8917 52.9 28.275 53.25C28.6583 53.5833 29.1583 53.75 29.775 53.75C30.4083 53.75 30.9083 53.6083 31.275 53.325C31.6417 53.025 31.825 52.6167 31.825 52.1C31.825 51.6667 31.675 51.3083 31.375 51.025C31.0917 50.7417 30.7333 50.5083 30.3 50.325C29.8833 50.1417 29.2833 49.9333 28.5 49.7C27.3667 49.35 26.4417 49 25.725 48.65C25.0083 48.3 24.3917 47.7833 23.875 47.1C23.3583 46.4167 23.1 45.525 23.1 44.425C23.1 42.7917 23.6917 41.5167 24.875 40.6C26.0583 39.6667 27.6 39.2 29.5 39.2C31.4333 39.2 32.9917 39.6667 34.175 40.6C35.3583 41.5167 35.9917 42.8 36.075 44.45H31.45C31.4167 43.8833 31.2083 43.4417 30.825 43.125C30.4417 42.7917 29.95 42.625 29.35 42.625C28.8333 42.625 28.4167 42.7667 28.1 43.05C27.7833 43.3167 27.625 43.7083 27.625 44.225C27.625 44.7917 27.8917 45.2333 28.425 45.55C28.9583 45.8667 29.7917 46.2083 30.925 46.575C32.0583 46.9583 32.975 47.325 33.675 47.675C34.3917 48.025 35.0083 48.5333 35.525 49.2C36.0417 49.8667 36.3 50.725 36.3 51.775C36.3 52.775 36.0417 53.6833 35.525 54.5C35.025 55.3167 34.2917 55.9667 33.325 56.45C32.3583 56.9333 31.2167 57.175 29.9 57.175ZM49.8559 53.9H43.3059L42.2559 57H37.7809L44.1309 39.45H49.0809L55.4309 57H50.9059L49.8559 53.9ZM48.7559 50.6L46.5809 44.175L44.4309 50.6H48.7559ZM72.4135 39.45L66.3385 51.2V57H62.0635V51.2L55.9885 39.45H60.8385L64.2385 46.8L67.6135 39.45H72.4135ZM94.6338 39.45V57H90.3588V49.775H83.7088V57H79.4338V39.45H83.7088V46.325H90.3588V39.45H94.6338ZM101.995 39.45V57H97.7199V39.45H101.995Z" fill="white"/>
<path d="M129.998 41.0665C130.035 40.5155 129.618 40.039 129.067 40.0022L120.086 39.4035C119.535 39.3668 119.059 39.7837 119.022 40.3348C118.985 40.8859 119.402 41.3624 119.953 41.3991L127.936 41.9313L127.404 49.9135C127.367 50.4646 127.784 50.9411 128.335 50.9779C128.886 51.0146 129.362 50.5976 129.399 50.0466L129.998 41.0665ZM113.659 55.7526L129.659 41.7526L128.341 40.2474L112.341 54.2474L113.659 55.7526Z" fill="white"/>
</svg>
